<?xml version="1.0" encoding="UTF-8"?>
<svg width="700pt" height="700pt" version="1.1" viewBox="0 0 700 500" xmlns="http://www.w3.org/2000/svg" xmlns:xlink="http://www.w3.org/1999/xlink">
 <g>
  <path fill="green" d="m392.27 131.18c0.11719-0.023438 11.723-1.9219 19.75 3.7383 0.77734 0.55078 1.6719 0.8125 2.5547 0.8125 1.3984 0 2.7734-0.65625 3.6367-1.8828 1.4141-2.0078 0.93359-4.7773-1.0742-6.1914-11.09-7.8164-25.781-5.3359-26.402-5.2266-2.4141 0.42578-4.0195 2.7227-3.6016 5.1367 0.42188 2.4062 2.7266 4.0156 5.1367 3.6133z"/>
  <path fill="green" d="m320.4 122.42c-0.61719-0.10938-15.309-2.5859-26.402 5.2266-2.0078 1.4141-2.4883 4.1875-1.0742 6.1914 0.86328 1.2266 2.2383 1.8828 3.6367 1.8828 0.88281 0 1.7773-0.26172 2.5547-0.8125 8-5.6367 19.551-3.7695 19.75-3.7383 2.4258 0.42578 4.7148-1.1914 5.1406-3.6055 0.42578-2.4141-1.1875-4.7188-3.6055-5.1445z"/>
  <path fill="green" d="m533.32 555c-15.586-124.7-72.004-180.71-116.6-205.73-5.2539-2.9258-10.27-5.4414-14.867-7.457-0.027344-0.011718-0.058594-0.023437-0.085938-0.039062-0.007812-0.003906-0.015625-0.007813-0.027343-0.011719-4.7812-2.1562-9.75-4.0898-15.062-5.8984v-30.48c29.055-10.609 51.953-33.711 61.59-49.77 2.5859-4.3125 5.0195-9.5781 7.2695-15.645 13.09-0.19141 25.41-9.7227 30.77-24.305 6.7891-18.473-0.32031-38.539-15.844-44.836 10.336-31.594 6.0859-84.004-19.633-122-15.082-22.273-43.848-48.828-95.266-48.828-51.434 0-80.207 26.57-95.289 48.863-25.711 38.004-29.945 90.391-19.602 121.96-15.527 6.3008-22.633 26.367-15.844 44.84 5.3594 14.582 17.672 24.113 30.77 24.301 2.25 6.0664 4.6836 11.336 7.2695 15.648 9.6328 16.059 32.535 39.16 61.59 49.77v30.488c-5.3086 1.8086-10.277 3.7422-15.043 5.8945-0.007813 0.003907-0.011719 0.003907-0.019531 0.007813-0.023438 0.011718-0.050782 0.019531-0.074219 0.035156-5.3555 2.3984-10.246 4.8555-14.906 7.4961-4.8555 2.6758-9.8203 5.7617-14.816 9.2031-1.6523-3.5391-3.457-7.082-5.4258-10.605-0.57812-1.0391-1.5508-1.8008-2.6992-2.1172-1.1445-0.3125-2.375-0.16016-3.4023 0.4375-1.5977 0.92188-3.4609 2.9961-5.2461 5.4414-1.8867-7.6914-5.1055-13.996-9.625-18.816-1.4102-1.5039-3.6719-1.8398-5.4609-0.8125-2.1875 1.2617-4.1172 3.2227-5.5977 5.5078-15.672-21.18-35.934-24.562-60.895-28.734-3.0312-0.50781-6.1602-1.0273-9.3828-1.5977-1.3633-0.23828-2.7617 0.16797-3.7812 1.1016-1.0195 0.9375-1.5469 2.2969-1.418 3.6758 2.9531 32.512 11.773 51.695 30.625 64.941-2.1133 1.4688-4.2617 3.668-6.2578 6.9531-1.0938 1.7969-0.77734 4.1133 0.75781 5.5508 3.3086 3.1016 10 6.918 16.266 9.7617-1.457 1.2539-2.5703 2.7539-2.9883 4.5039-0.34766 1.4648 0.070313 3.0117 1.1133 4.1016 3.4297 3.5859 8.7656 8.1719 15.129 12.871-22.555 35.008-36.402 77.84-43.469 134.33-0.16016 1.2656 0.23438 2.5352 1.0781 3.4922 0.84375 0.95312 2.0586 1.5039 3.332 1.5039h80.121 0.011719 0.015625 6.0156 0.011719 0.015624 196.08 0.015624 0.011719 64.371c1.2734 0 2.4883-0.54688 3.332-1.5039 0.83594-0.96094 1.2266-2.2305 1.0703-3.4961zm-67.711-46.598c-1.4844-0.39844-3.0273-0.63281-4.5977-0.63281h-0.18359c-2.4531 0.027343-4.4219 2.0352-4.3984 4.4883 0.023437 2.4375 2.0117 4.3984 4.4414 4.3984h0.13281c2.6719 0 5.293 1.2617 6.7812 3.2227 0.83203 1.1523 1.2539 2.3867 1.2539 3.7773 0.070312 2.8516-1.8516 5.4102-4.8984 6.5117-1.6836 0.60938-2.8359 2.1719-2.9258 3.957-0.085938 1.7891 0.90625 3.457 2.5234 4.2305 1.6484 0.78906 2.9727 2.043 3.6367 3.4453 0.082032 0.17187 0.17578 0.33984 0.27734 0.49609 0.28516 0.72266 0.43359 1.4336 0.43359 2.1445 0.035156 2.793-1.7852 5.4375-4.4766 6.6562h-42.828c-0.27734-0.13281-0.55859-0.27344-0.85547-0.42578-2.2344-1.3203-3.5859-3.4727-3.6172-5.7734-0.003906-0.09375-0.007812-0.19141-0.015625-0.28516-0.015625-0.17969 0.046875-0.54297 0.12109-0.98828 0.38281-2.1055 1.957-3.9648 4.1641-5.0039h22.801c2.4531 0 4.4453-1.9883 4.4453-4.4453 0-2.4531-1.9883-4.4453-4.4453-4.4453h-22.523c-2.168-1.3281-3.5039-3.4375-3.5352-5.6953-0.035157-1.8672 0.69922-3.668 2.0703-5.0703 1.4375-1.4766 3.3828-2.2969 5.4414-2.3086h19.125c2.4531 0 4.4453-1.9883 4.4453-4.4453 0-2.4531-1.9883-4.4453-4.4453-4.4453h-19.156c-1.3789 0.007813-2.7266 0.20312-4.0273 0.53125-1.8945-1.4648-3.2305-3.7734-3.2617-5.9062-0.035156-1.8672 0.69922-3.668 2.0703-5.0703 1.4414-1.4766 3.3828-2.2969 5.4414-2.3125h36.086 0.085938c2.6719 0 5.2891 1.2656 6.7812 3.2227 0.82812 1.1484 1.25 2.3828 1.2539 3.7734 0.070313 2.5742-1.4062 5.0742-3.6211 6.3984zm-193.89 42.703-7.8438-25.828c-0.058594-0.53516-0.21875-1.0508-0.46484-1.5273l-8.7266-28.73h78.121c0.054687 0.003906 0.10937 0.015624 0.16406 0.015624 0.070312 0 0.14844-0.011718 0.21875-0.015624h77.211c-1.207 2.3203-1.8203 4.8906-1.7695 7.5273 0.050782 3.7227 1.6445 7.4805 4.2109 10.434-2.9141 3.0938-4.4844 7.0625-4.4062 11.207 0.050781 3.5586 1.375 6.9258 3.6719 9.6367-2.293 2.25-3.8711 5.1055-4.4375 8.2188-0.003907 0.019531-0.019531 0.11719-0.023438 0.13672-0.13281 0.79688-0.30078 1.7812-0.22266 2.9883 0.050781 2.0781 0.52734 4.0859 1.3711 5.9336zm61.617-212.04h0.011718v-12.762c7.4336 1.6328 14.883 2.4648 22.309 2.4648 7.4062 0 14.797-0.82812 22.133-2.4531v12.746h0.03125c0.003907 1.875 1.1797 3.6172 3.0625 4.2227 5.2266 1.6836 10.043 3.4922 14.695 5.4883v137.35h-59.02c-1.6016-6.0352-6-17.383-16.965-21.203-1.3125-0.45703-2.6562-0.75781-4.0156-0.92969v-115.22c4.6328-1.9883 9.4609-3.8008 14.695-5.4844 1.8828-0.60547 3.0586-2.3477 3.0625-4.2227zm-21.047 147.06c-4.9023-2.7305-10.098-5.4961-15.387-8.1797 4.1797-2.3672 9.4531-4.6992 14.219-5.1562h0.011718c0.14844 0 0.28906-0.03125 0.4375-0.042969 1.8125-0.12891 3.543 0.023438 5.0977 0.56641 5.9688 2.0781 9.0859 8.293 10.609 12.809zm-5.5977-21.629c-4.8438 1.0352-9.4609 3.0938-13.18 5.1328-1.707-8.7578-3.9609-17.055-6.8047-25.086l19.984 19.578zm-13.312 21.629h-44.176l-10.957-2.5547c-3.875-1.7344-7.0156-7.207-5.5195-12.215 0.89453-2.9961 2.4805-6.125 10.035-5.3477 8.7891 1.0078 29.305 9.2773 50.617 20.117zm-42.492 59.621c-3.0625-2.5781-4.5117-7.1992-3.5234-11.238 0.50781-2.0859 1.6289-3.8047 3.168-4.8477 1.5391-1.0508 3.3516-1.2969 5.1641-0.73438l6.625 21.809-9.2461-3.6836c-0.76172-0.29688-1.5117-0.74219-2.1875-1.3047zm-11.703-43.277c0.6875-2.8086 2.6016-5.5039 4.8672-6.8594 0.375-0.22266 0.83203-0.44922 1.3359-0.61328l6.9844 23.004-7.4453-2.9727c-3.4883-1.4062-6.0195-5.6172-6.0195-10.012 0.007812-0.875 0.10547-1.7578 0.27734-2.5469zm171.6-16.344h-6.3125v-16.598l11.129 5.7734zm-6.3125-133.27c2.1367 1.0625 4.3398 2.2148 6.5898 3.4492l26.367 63.023-32.957 32.305zm73.496-140.26c-3.5469 9.6406-11.164 16.543-19.336 18.137 4.3047-14.215 7.7148-31.648 9.8984-51.004 10.113 5.1719 14.363 19.469 9.4375 32.867zm-210.33-158.76c13.879-20.508 40.395-44.953 87.93-44.953 37.609 0 68.004 15.535 87.898 44.922 21.777 32.172 27.234 75.148 21.051 104.85-10.699-29.688-28.621-55.66-54.52-79.031-1.5898-1.4375-3.9844-1.5312-5.6836-0.22656-1.6992 1.3086-2.2266 3.6406-1.25 5.5508 4.4297 8.6562 6.0781 15.922 4.9727 22.027-19.855-13.727-31.488-31.82-35.5-55.16-0.375-2.1914-2.3477-3.8008-4.5391-3.6875-2.2227 0.078125-4.0469 1.7852-4.2656 4-2.918 29.273-12.152 48.965-28.934 61.496-3.8906-8.3672-3.8047-16.832 0.23828-25.746 0.73047-1.6133 0.4375-3.5039-0.75391-4.8164-1.1875-1.3125-3.0391-1.8008-4.7188-1.2266-33.988 11.5-59.555 45.172-81.895 81.387-7.7773-29.707-2.9375-75.523 19.969-109.39zm-34.465 158.76c-4.9258-13.398-0.67969-27.695 9.4375-32.867 2.1836 19.359 5.5938 36.793 9.8984 51.012-8.1719-1.5898-15.789-8.5-19.336-18.145zm37.32 38.445c-2.6758-4.457-5.2031-10.188-7.5273-16.918-0.035156-0.12109-0.078125-0.23438-0.12109-0.35156-5.2773-15.426-9.4688-36.07-11.82-58.957 20.512-34.078 43.484-66.938 72.781-81.031-1.9766 9.793-0.078126 19.395 5.6875 28.656 0.625 1.0078 1.6328 1.7227 2.793 1.9844 1.1562 0.26172 2.375 0.050781 3.375-0.58984 16.957-10.84 28.055-27.57 33.633-50.855 7.3516 18.273 20.34 33.238 38.797 44.648 1.0703 0.66016 2.3672 0.83984 3.5742 0.48828 1.207-0.34766 2.207-1.1914 2.7578-2.3203 2.5-5.1289 3.3672-10.734 2.5859-16.914 21.105 22.371 35.289 47.172 43.168 75.352-2.3398 23.121-6.5586 43.984-11.879 59.539-0.046875 0.11719-0.089844 0.23828-0.125 0.35938-2.3203 6.7266-4.8516 12.457-7.5273 16.914-11.871 19.781-45.465 51.172-85.078 51.172-39.609 0-73.203-31.391-85.074-51.176zm85.074 60.062c7.6523 0 15.086-1.082 22.223-2.9492v9.0547c-14.676 3.5625-29.594 3.5586-44.441-0.011719v-9.043c7.1367 1.8711 14.57 2.9492 22.219 2.9492zm-56.82 45.957c2.5625-1.4531 5.2031-2.8359 7.9414-4.1914v98.812l-18.809-18.43c7.0664-16.926 5.2852-41.258-4.6875-66.406 5.2422-3.6797 10.453-6.9766 15.555-9.7852zm-77.984 37.328c-4.1055-0.73828-13.941-5.2383-19.73-9.0469 2.6016-2.5664 5.0234-2.4688 7.2266-2.375 2.0273 0.085938 3.9297-1.2773 4.4688-3.2773 0.54297-2.0039-0.37109-4.1133-2.2031-5.0859-21.109-11.219-30.754-27.125-34.406-57.648 1.2344 0.20703 2.4531 0.41406 3.6602 0.61328 27.539 4.6016 45.73 7.6406 59.949 32.562 1.043 1.832 3.2305 2.6719 5.2344 2.0273 2.0039-0.65234 3.2773-2.6172 3.0469-4.7109-0.15625-1.4023 0.49219-3.3125 1.5117-4.9336 3.6641 5.6172 5.7695 13.238 6.2812 22.738 0.11328 2.1016 1.6836 3.832 3.7617 4.1523 2.0781 0.32422 4.0977-0.85938 4.8359-2.8281 0.86719-2.3047 3.0312-5.9648 4.9727-8.7852 1.4961 2.957 2.8672 5.918 4.1289 8.875 0.078125 0.24219 0.17578 0.47656 0.29297 0.70703 9.75 23.238 12.145 46.016 6.3711 61.254-15.238-32.328-41.762-62.078-86.844-97.762-1.9219-1.5234-4.7188-1.1953-6.2422 0.72656-1.5234 1.9258-1.1992 4.7188 0.72656 6.2422 45.355 35.898 71.328 65.406 85.703 97.594-14.793-0.17578-42.875-16.855-57.746-30.68 1.4258-0.71484 3.2539-1.3828 4.7734-1.5742 2.1797-0.27344 3.832-2.0938 3.8906-4.293 0.054688-2.1953-1.5-4.1016-3.6641-4.4922zm7.8281 31.391c14.547 9.6992 32.207 18.516 45.277 18.516 1.1055 0 2.1719-0.078125 3.207-0.21094 3.3906 8.9102 5.9883 18.148 7.8672 28.012-16.52-7.7734-32.367-13.91-41.215-14.926-12.855-1.3281-17.707 5.5938-19.516 11.637-2.6875 8.9883 2.2344 19.457 10.762 23.02-2.0898 2.4258-3.6562 5.4023-4.4414 8.6211-0.33594 1.5117-0.50781 3.0469-0.50781 4.5625 0 8.125 4.6523 15.461 11.586 18.258l1.8359 0.73828c-2.2734 2.1992-3.9141 5.1016-4.7188 8.3984-1.6016 6.5664 0.33203 13.762 4.8516 18.617v0.082031h-56.273c7.0508-52.492 20.25-92.559 41.285-125.32zm246.93 125.32c0.95703-2.0781 1.4805-4.3555 1.4531-6.7109 0-2.1484-0.50781-4.3047-1.5078-6.4023-0.11328-0.23828-0.24609-0.46094-0.39844-0.67188-0.5-0.92578-1.1016-1.8047-1.7891-2.6172 3.0117-2.957 4.7578-6.9609 4.6562-11.152 0-3.1406-1.0117-6.207-2.9961-8.957-0.37891-0.49609-0.78516-0.96484-1.2148-1.4141 2.8359-3.0312 4.5117-7.0898 4.4062-11.273 0-3.1445-1.0156-6.2109-2.9961-8.957-1.9414-2.5547-4.5898-4.4688-7.5547-5.6172l-0.003906-38.449c0-2.4531-1.9883-4.4453-4.4453-4.4453-2.4531 0-4.4453 1.9883-4.4453 4.4453v37.246h-38.18l4.9102-11.039c0.95312-2.1484 0.070312-4.668-2.0156-5.75l-15.887-8.2422 38.285-37.527c1.3008-1.2734 1.6914-3.2109 0.98828-4.8906l-22.82-54.547c39.875 26.586 85.336 79.988 99.883 186.97z"/>
  <path fill="green" d="m408.92 173.33c0 4.9102-3.9766 8.8906-8.8867 8.8906s-8.8906-3.9805-8.8906-8.8906c0-4.9102 3.9805-8.8867 8.8906-8.8867s8.8867 3.9766 8.8867 8.8867"/>
  <path fill="green" d="m320.04 173.33c0 4.9102-3.9805 8.8906-8.8906 8.8906-4.9062 0-8.8867-3.9805-8.8867-8.8906 0-4.9102 3.9805-8.8867 8.8867-8.8867 4.9102 0 8.8906 3.9766 8.8906 8.8867"/>
  <path fill="green" d="m370.63 195.25c2.3633-0.67188 3.7344-3.125 3.0664-5.4883-0.66797-2.3594-3.125-3.7383-5.4883-3.0664-8.0625 2.2852-16.184 2.2852-24.246 0-2.3594-0.67187-4.8164 0.70313-5.4883 3.0664-0.67187 2.3594 0.70313 4.8164 3.0664 5.4883 4.8203 1.3672 9.7109 2.0586 14.543 2.0586 4.8359 0 9.7266-0.69141 14.547-2.0586z"/>
 </g>
</svg>
