<?xml version="1.0" encoding="UTF-8"?>
<svg width="700pt" height="700pt" version="1.1" viewBox="80 10 540 540" xmlns="http://www.w3.org/2000/svg" xmlns:xlink="http://www.w3.org/1999/xlink">
 <g>
  <path fill="gray" d="m350 13.082c73.695 0 140.43 29.883 188.74 78.18 48.297 48.305 78.18 115.04 78.18 188.74s-29.883 140.43-78.18 188.73c-48.305 48.305-115.04 78.188-188.74 78.188s-140.43-29.883-188.73-78.188c-48.305-48.297-78.188-115.04-78.188-188.73s29.883-140.43 78.188-188.74c48.297-48.297 115.04-78.18 188.73-78.18zm172.88 439.83c-0.40234-32.582-9.7812-62.969-25.77-88.762-15.516-25.043-37.305-45.844-63.172-60.23-10.602 9.75-22.953 17.715-36.523 23.336l-0.57422 0.21875c-14.504 5.9258-30.332 9.1992-46.844 9.1992-9.8086 0-19.5-1.1914-28.879-3.4336-9.6562-2.3008-18.805-5.6953-27.27-9.9922-5.5039-2.7969-7.6992-9.543-4.9023-15.047s9.543-7.6992 15.047-4.9023c7.082 3.5977 14.559 6.3945 22.285 8.2344 7.4688 1.7852 15.418 2.7305 23.719 2.7305 13.633 0 26.574-2.6445 38.348-7.4414l0.49609-0.21875c12.41-5.1406 23.605-12.707 32.992-22.09 0.33594-0.33594 0.69531-0.64844 1.0586-0.93359 0.47656-0.64844 1.0195-1.2383 1.6016-1.7539 8.4609-9.1133 15.285-19.805 19.961-31.562 4.5977-11.543 7.1289-24.234 7.1289-37.59 0-28.059-11.375-53.461-29.75-71.836s-43.781-29.75-71.836-29.75c-28.086 0-53.488 11.355-71.836 29.711-18.375 18.414-29.75 43.82-29.75 71.875 0 13.355 2.5352 26.047 7.1289 37.59 4.8086 12.086 11.859 23.023 20.629 32.285 4.2266 4.4648 4.0273 11.527-0.4375 15.754-0.82031 0.77344-1.7344 1.4023-2.6914 1.8867-28.926 14.445-53.266 36.695-70.156 63.961-15.988 25.797-25.367 56.176-25.77 88.758 44.234 44.234 105.36 71.598 172.88 71.598 67.512 0 128.64-27.363 172.88-71.594zm-366.5-23.566c3.6914-27.906 13.289-53.984 27.5-76.918 16.66-26.895 39.645-49.434 66.844-65.52-6.4883-8.6719-11.879-18.215-15.934-28.414-5.6758-14.242-8.7969-29.719-8.7969-45.816 0-34.23 13.891-65.234 36.324-87.672 22.477-22.43 53.484-36.324 87.672-36.324 34.23 0 65.234 13.891 87.672 36.324 22.434 22.434 36.324 53.441 36.324 87.672 0 16.098-3.1211 31.578-8.7969 45.816-4.0547 10.199-9.4453 19.742-15.941 28.414 27.199 16.086 50.188 38.629 66.852 65.52 14.215 22.93 23.812 49.012 27.5 76.918 31.902-41.301 50.895-93.109 50.895-149.35 0-67.523-27.371-128.66-71.605-172.9-44.242-44.234-105.38-71.605-172.9-71.605-67.523 0-128.66 27.371-172.89 71.605-44.242 44.242-71.613 105.38-71.613 172.9 0 56.242 18.988 108.05 50.895 149.35z"/>
 </g>
</svg>
