<svg xmlns="http://www.w3.org/2000/svg" xmlns:xlink="http://www.w3.org/1999/xlink" version="1.1" x="0px" y="0px" viewBox="4.75 -15 90 125" enable-background="new 0 0 100 100" xml:space="preserve">
  <path d="M94.223,51.223l-17.93-30.879l0.659-0.66c0.819,0.043,1.651-0.238,2.278-0.864c1.172-1.172,1.172-3.071,0-4.242  c-1.172-1.172-3.07-1.172-4.242,0c-0.627,0.625-0.907,1.458-0.864,2.278L16.99,73.99c-0.781,0.781-0.781,2.047,0,2.828  c0.391,0.391,0.902,0.586,1.414,0.586c0.512,0,1.024-0.195,1.414-0.586l39.293-39.294L91.587,54.01  c0.287,0.146,0.599,0.217,0.904,0.217c0.538,0,1.067-0.217,1.454-0.625C94.555,52.956,94.667,51.988,94.223,51.223z M62.088,34.549  L73.367,23.27l13.999,24.111L62.088,34.549z"/>
  <path d="M25.28,16.856c0.043-0.819-0.238-1.652-0.864-2.278c-1.074-1.074-2.752-1.151-3.928-0.257  c-0.111,0.073-0.217,0.159-0.314,0.257c-1.172,1.171-1.172,3.07,0,4.242c0.626,0.626,1.459,0.907,2.278,0.864l0.66,0.66  L5.183,51.223c-0.445,0.768-0.333,1.733,0.276,2.379c0.387,0.408,0.917,0.625,1.454,0.625c0.308,0,0.617-0.068,0.905-0.217  l32.474-16.485l5.168,5.168l2.828-2.828L25.28,16.856z"/>
  <path d="M79.586,76.818c0.391,0.391,0.902,0.586,1.414,0.586s1.023-0.195,1.414-0.586c0.781-0.781,0.781-2.047,0-2.828  L53.943,45.521l-2.827,2.828L79.586,76.818z"/>
</svg>
