<?xml version="1.0" encoding="UTF-8"?>
<svg width="700pt" height="700pt" version="1.1" viewBox="85 20 530 530" xmlns="http://www.w3.org/2000/svg">
 <path fill="gray" d="m132.86 28.09h434.28c11.871 0 22.688 4.8633 30.539 12.707 7.8789 7.8906 12.73 18.699 12.73 30.562v417.29c0 11.906-4.875 22.734-12.707 30.562-7.832 7.832-18.664 12.699-30.562 12.699h-434.28c-11.898 0-22.734-4.8672-30.562-12.699-7.832-7.832-12.699-18.664-12.699-30.562v-417.29c0-11.898 4.8672-22.734 12.699-30.562 7.832-7.832 18.66-12.707 30.562-12.707zm297.86 201.27-57.648 21.18c-2.8984 1.0586-6.1172-0.42969-7.1758-3.3281-0.46875-1.2891-0.4375-2.6445 0-3.8477l21.324-57.875c0.29297-0.78516 0.73438-1.4766 1.2969-2.0312l37.84-37.848h-325.55v343.05c0 8.8086 3.6133 16.832 9.418 22.641 5.8086 5.8086 13.832 9.418 22.641 9.418h434.28c8.8086 0 16.832-3.6133 22.641-9.418 5.8086-5.8086 9.4258-13.832 9.4258-22.641v-343.05h-83.809l-82.367 82.359c-0.66797 0.66797-1.4609 1.1328-2.3086 1.3906zm6.8398-94.953 62.102-62.113c6.125-6.125 14.195-9.1875 22.258-9.1875 8.0547 0 16.133 3.0625 22.258 9.1875 6.1367 6.1367 9.1992 14.215 9.1992 22.27 0 8.0625-3.0625 16.133-9.1875 22.258l-17.586 17.586h72.605v-63.039c0-8.8281-3.5977-16.848-9.3984-22.641-5.8203-5.8281-13.836-9.4258-22.668-9.4258h-434.28c-8.8086 0-16.832 3.6172-22.641 9.4258s-9.418 13.832-9.418 22.641v63.039h336.76zm-56.98 101.46 45.379-16.668 83.062-83.047 0.09375-0.097656 0.097656-0.09375 27.051-27.059c3.9336-3.9336 5.9062-9.1328 5.9062-14.332 0-5.1914-1.9727-10.398-5.9062-14.332-3.9492-3.9492-9.1523-5.918-14.348-5.918-5.1992 0-10.398 1.9727-14.332 5.9062l-63.656 63.656-0.09375 0.097656-0.097656 0.09375-46.453 46.457-16.707 45.34zm-240.18 186.91c-3.0898 0-5.6016-2.5117-5.6016-5.6016 0-3.0898 2.5117-5.6016 5.6016-5.6016h415.75c3.0898 0 5.6016 2.5117 5.6016 5.6016 0 3.0898-2.5117 5.6016-5.6016 5.6016zm3.4648-84c-3.0898 0-5.6016-2.5117-5.6016-5.6016 0-3.0898 2.5117-5.6016 5.6016-5.6016h415.75c3.0898 0 5.6016 2.5117 5.6016 5.6016 0 3.0898-2.5117 5.6016-5.6016 5.6016zm0-84c-3.0898 0-5.6016-2.5117-5.6016-5.6016 0-3.0898 2.5117-5.6016 5.6016-5.6016h194.36c3.0898 0 5.6016 2.5117 5.6016 5.6016 0 3.0898-2.5117 5.6016-5.6016 5.6016zm109.64-191.66c6.6016 0 12.586 2.6836 16.898 6.9961 4.3242 4.3242 7.0039 10.305 7.0039 16.906 0 6.5664-2.6797 12.547-7.0039 16.871-4.3594 4.3516-10.34 7.0312-16.898 7.0312-6.6016 0-12.582-2.6797-16.906-7.0039-4.3125-4.3125-6.9961-10.297-6.9961-16.898 0-6.5664 2.6836-12.555 6.9961-16.879 4.3516-4.3398 10.34-7.0234 16.906-7.0234zm8.9766 14.922c-2.2891-2.2891-5.4688-3.7188-8.9766-3.7188-3.5117 0-6.6992 1.4219-8.9961 3.7031-2.2812 2.2969-3.7031 5.4844-3.7031 8.9961 0 3.5039 1.4297 6.6875 3.7188 8.9766 2.2969 2.2969 5.4766 3.7227 8.9805 3.7227 3.5195 0 6.6992-1.4219 8.9766-3.6992 2.3008-2.3008 3.7227-5.4844 3.7227-9.0039 0-3.5039-1.4297-6.6875-3.7227-8.9805zm-92.977-14.922c6.6016 0 12.586 2.6836 16.898 6.9961 4.3242 4.3242 7.0039 10.305 7.0039 16.906 0 6.5664-2.6797 12.547-7.0039 16.871-4.3594 4.3516-10.34 7.0312-16.898 7.0312-6.6016 0-12.582-2.6797-16.906-7.0039-4.3125-4.3125-6.9961-10.297-6.9961-16.898 0-6.5664 2.6836-12.555 6.9961-16.879 4.3516-4.3398 10.34-7.0234 16.906-7.0234zm8.9766 14.922c-2.2891-2.2891-5.4688-3.7188-8.9766-3.7188-3.5117 0-6.6992 1.4219-8.9961 3.7031-2.2812 2.2969-3.7031 5.4844-3.7031 8.9961 0 3.5039 1.4297 6.6875 3.7188 8.9766 2.2969 2.2969 5.4766 3.7227 8.9805 3.7227 3.5195 0 6.6992-1.4219 8.9766-3.6992 2.3008-2.3008 3.7227-5.4844 3.7227-9.0039 0-3.5039-1.4297-6.6875-3.7227-8.9805z"/>
</svg>
