<svg xmlns="http://www.w3.org/2000/svg" viewBox="4 -3 56 70" x="0px" y="0px">
  <g>
    <path d="M31,13H19a1,1,0,0,0,0,2H31a1,1,0,0,0,0-2Zm-4,6H19a1,1,0,0,0,0,2h8a1,1,0,0,0,0-2Zm-5,6H19a1,1,0,0,0,0,2h3a1,1,0,0,0,0-2Zm23,0H26a1,1,0,0,0,0,2H45a1,1,0,0,0,0-2ZM35,31H19a1,1,0,0,0,0,2H35a1,1,0,0,0,0-2Zm6,0H39a1,1,0,0,0,0,2h2a1,1,0,0,0,0-2Zm1,6H19a1,1,0,0,0,0,2H42a1,1,0,0,0,0-2ZM24,43H19a1,1,0,0,0,0,2h5a1,1,0,0,0,0-2Zm16,0H29a1,1,0,0,0,0,2H40a1,1,0,0,0,0-2ZM18,4a5,5,0,0,0-5,5V45a1,1,0,0,0,2,0V9a3,3,0,0,1,3-3,1,1,0,0,0,0-2ZM29,49H19a1,1,0,0,0,0,2H29a1,1,0,0,0,0-2Zm6,0H33a1,1,0,0,0,0,2h2a1,1,0,0,0,0-2ZM51,9V55a5,5,0,0,1-5,5H18a5,5,0,0,1-5-5V50a1,1,0,0,1,2,0v5a3,3,0,0,0,3,3H46a3,3,0,0,0,3-3V9a3,3,0,0,0-3-3V20.24a1,1,0,0,1-1.77.64l-2.46-3a1,1,0,0,0-1.54,0l-2.46,3A1,1,0,0,1,36,20.24V6H23a1,1,0,0,1,0-2H46A5,5,0,0,1,51,9Z"/>
  </g>
</svg>