<?xml version="1.0" encoding="UTF-8"?>
<svg width="700pt" height="700pt" version="1.1" viewBox="0 0 700 500" xmlns="http://www.w3.org/2000/svg" xmlns:xlink="http://www.w3.org/1999/xlink">
 <g>
  <path fill="green" d="m593.86 560h-487.64c-14.438 0-26.25-11.727-26.25-26.164v-458.41c0-14.438 11.812-26.25 26.25-26.25h69.039c4.7266 0 8.4883 3.7617 8.4883 8.4883 0 4.7266-3.7617 8.4883-8.4883 8.4883l-69.039-0.003906c-5.0742 0-9.2734 4.1992-9.2734 9.2734v458.41c0 5.0742 4.1992 9.1875 9.2734 9.1875h487.55c2.5391 0 4.8984-1.0508 6.3008-2.7109 1.1367-1.3125 1.4883-2.9766 1.1367-4.7266-0.085938-0.52344-0.17578-1.1367-0.17578-1.6641v-458.5c0-0.52344 0.085938-1.1367 0.17578-1.6641 0.35156-1.8359 0-3.5-1.1367-4.8984-1.3984-1.6641-3.7617-2.7109-6.2109-2.7109h-70.789c-4.7266 0-8.4883-3.7617-8.4883-8.4883 0-4.7266 3.7617-8.4883 8.4883-8.4883h70.789c7.6992 0 14.699 3.2383 19.336 8.9258 4.1992 5.0742 5.8633 11.461 4.8125 18.023v456.84c1.0508 6.4766-0.61328 12.863-4.7266 17.938-4.7266 5.8633-11.812 9.1016-19.426 9.1016z"/>
  <path fill="green" d="m482.04 66.148h-265.74c-4.7266 0-8.4883-3.7617-8.4883-8.4883 0-4.7266 3.7617-8.4883 8.4883-8.4883h265.65c4.7266 0 8.4883 3.7617 8.4883 8.4883 0 4.7266-3.7617 8.4883-8.3984 8.4883z"/>
  <path fill="green" d="m611.54 159.25h-522.99c-4.7266 0-8.4883-3.7617-8.4883-8.4883 0-4.7266 3.7617-8.4883 8.4883-8.4883h522.99c4.7266 0 8.4883 3.7617 8.4883 8.4883-0.003906 4.7266-3.8516 8.4883-8.4883 8.4883z"/>
  <path fill="green" d="m222.43 291.55h-59.676c-4.7266 0-8.4883-3.7617-8.4883-8.4883v-59.676c0-4.7266 3.7617-8.4883 8.4883-8.4883h59.676c4.7266 0 8.4883 3.7617 8.4883 8.4883v59.676c0 4.6367-3.8516 8.4883-8.4883 8.4883zm-51.188-16.977h42.699v-42.699h-42.699z"/>
  <path fill="green" d="m326.81 291.55h-59.676c-4.7266 0-8.4883-3.7617-8.4883-8.4883v-59.676c0-4.7266 3.7617-8.4883 8.4883-8.4883h59.676c4.7266 0 8.4883 3.7617 8.4883 8.4883v59.676c0 4.6367-3.8516 8.4883-8.4883 8.4883zm-51.188-16.977h42.699v-42.699h-42.699z"/>
  <path fill="green" d="m431.2 291.55h-59.676c-4.7266 0-8.4883-3.7617-8.4883-8.4883v-59.676c0-4.7266 3.7617-8.4883 8.4883-8.4883h59.676c4.7266 0 8.4883 3.7617 8.4883 8.4883v59.676c0 4.6367-3.7617 8.4883-8.4883 8.4883zm-51.188-16.977h42.699v-42.699h-42.699z"/>
  <path fill="green" d="m535.59 291.55h-59.676c-4.7266 0-8.4883-3.7617-8.4883-8.4883v-59.676c0-4.7266 3.7617-8.4883 8.4883-8.4883h59.676c4.7266 0 8.4883 3.7617 8.4883 8.4883v59.676c0 4.6367-3.7617 8.4883-8.4883 8.4883zm-51.188-16.977h42.699l0.003906-42.699h-42.699z"/>
  <path fill="green" d="m222.43 390.95h-59.676c-4.7266 0-8.4883-3.7617-8.4883-8.4883v-59.676c0-4.7266 3.7617-8.4883 8.4883-8.4883h59.676c4.7266 0 8.4883 3.7617 8.4883 8.4883v59.676c0 4.7266-3.8516 8.4883-8.4883 8.4883zm-51.188-16.973h42.699v-42.699h-42.699z"/>
  <path fill="green" d="m326.81 390.95h-59.676c-4.7266 0-8.4883-3.7617-8.4883-8.4883v-59.676c0-4.7266 3.7617-8.4883 8.4883-8.4883h59.676c4.7266 0 8.4883 3.7617 8.4883 8.4883v59.676c0 4.7266-3.8516 8.4883-8.4883 8.4883zm-51.188-16.973h42.699v-42.699l-42.699-0.003906z"/>
  <path fill="green" d="m431.2 390.95h-59.676c-4.7266 0-8.4883-3.7617-8.4883-8.4883v-59.676c0-4.7266 3.7617-8.4883 8.4883-8.4883h59.676c4.7266 0 8.4883 3.7617 8.4883 8.4883v59.676c0 4.7266-3.7617 8.4883-8.4883 8.4883zm-51.188-16.973h42.699v-42.699h-42.699z"/>
  <path fill="green" d="m535.59 390.95h-59.676c-4.7266 0-8.4883-3.7617-8.4883-8.4883v-59.676c0-4.7266 3.7617-8.4883 8.4883-8.4883h59.676c4.7266 0 8.4883 3.7617 8.4883 8.4883v59.676c0 4.7266-3.7617 8.4883-8.4883 8.4883zm-51.188-16.973h42.699v-42.699h-42.699z"/>
  <path fill="green" d="m222.43 490.44h-59.676c-4.7266 0-8.4883-3.7617-8.4883-8.4883v-59.676c0-4.7266 3.7617-8.4883 8.4883-8.4883h59.676c4.7266 0 8.4883 3.7617 8.4883 8.4883v59.676c0 4.6367-3.8516 8.4883-8.4883 8.4883zm-51.188-16.977h42.699v-42.699h-42.699z"/>
  <path fill="green" d="m326.81 490.44h-59.676c-4.7266 0-8.4883-3.7617-8.4883-8.4883v-59.676c0-4.7266 3.7617-8.4883 8.4883-8.4883h59.676c4.7266 0 8.4883 3.7617 8.4883 8.4883v59.676c0 4.6367-3.8516 8.4883-8.4883 8.4883zm-51.188-16.977h42.699v-42.699h-42.699z"/>
  <path fill="green" d="m431.2 490.44h-59.676c-4.7266 0-8.4883-3.7617-8.4883-8.4883v-59.676c0-4.7266 3.7617-8.4883 8.4883-8.4883h59.676c4.7266 0 8.4883 3.7617 8.4883 8.4883v59.676c0 4.6367-3.7617 8.4883-8.4883 8.4883zm-51.188-16.977h42.699v-42.699h-42.699z"/>
  <path fill="green" d="m535.59 490.44h-59.676c-4.7266 0-8.4883-3.7617-8.4883-8.4883v-59.676c0-4.7266 3.7617-8.4883 8.4883-8.4883h59.676c4.7266 0 8.4883 3.7617 8.4883 8.4883v59.676c0 4.6367-3.7617 8.4883-8.4883 8.4883zm-51.188-16.977h42.699v-42.699h-42.699z"/>
  <path fill="green" d="m195.82 115.41c-16.012 0-28.961-13.039-28.961-28.961v-57.492c0-16.012 13.039-28.961 28.961-28.961 15.926 0 28.961 13.039 28.961 28.961v57.398c0.003906 16.016-13.035 29.055-28.961 29.055zm0-98.438c-6.6484 0-12.074 5.4219-12.074 11.984v57.398c0 6.6484 5.4258 11.988 11.988 11.988s11.988-5.4258 11.988-11.988v-57.398c0.085938-6.5625-5.3398-11.984-11.902-11.984z"/>
  <path fill="green" d="m502.51 115.41c-16.012 0-28.961-13.039-28.961-28.961v-57.492c0-16.012 13.039-28.961 28.961-28.961 15.926 0 28.961 13.039 28.961 28.961v57.398c0.089844 16.016-12.949 29.055-28.961 29.055zm0-98.438c-6.6484 0-11.988 5.4258-11.988 11.988v57.398c0 6.6484 5.4258 11.988 11.988 11.988s11.988-5.4258 11.988-11.988v-57.402c0.085938-6.5625-5.3359-11.984-11.988-11.984z"/>
 </g>
</svg>
