<?xml version="1.0" encoding="UTF-8"?>
<svg width="700pt" height="700pt" version="1.1" viewBox="0 0 700 500" xmlns="http://www.w3.org/2000/svg" xmlns:xlink="http://www.w3.org/1999/xlink">
 <g>
  <path fill="green" d="m119.98 80.074 28.77-5.8438v-17.859l-32.16 6.5312c-6.4883 1.2305-12.223 4.9766-15.957 10.426-3.7305 5.4492-5.1484 12.152-3.9453 18.645l52.062 273.93v-93.715l-34.871-183.47c-0.33984-1.957 0.11328-3.9648 1.2578-5.5859s2.8867-2.7188 4.8438-3.0508z"/>
  <path fill="green" d="m583.51 62.926-32.258-6.5547v17.859l28.867 5.8633c4.0352 0.72656 6.7188 4.582 6.0039 8.6133l-34.871 183.48v93.715l52.062-273.93c1.207-6.4766-0.19922-13.164-3.9102-18.609-3.7109-5.4414-9.4258-9.1953-15.895-10.438z"/>
  <path fill="green" d="m533.75 440.77v-414.78c-0.042969-6.9219-2.8281-13.551-7.7461-18.422-4.9219-4.875-11.574-7.5977-18.5-7.5742h-315.01c-6.9258-0.023438-13.578 2.6992-18.5 7.5742-4.918 4.8711-7.7031 11.5-7.7461 18.422v508.01c0.042969 6.9219 2.8281 13.551 7.7461 18.422 4.9219 4.875 11.574 7.5977 18.5 7.5742h227.5c2.4414 0 4.7734-1.0234 6.4297-2.8164l58.242-63.094 46.559-47.168c1.6133-1.6406 2.5195-3.8477 2.5195-6.1484zm-105 88.098v-74.328c-0.21875-4.3359 3.0977-8.0352 7.4297-8.293h68.832zm87.5-100.12h-80.07c-6.7227 0.125-13.121 2.9102-17.797 7.7422-4.6719 4.8359-7.2383 11.328-7.1328 18.051v87.957h-218.75c-4.7617 0.0625-8.6719-3.7383-8.7461-8.4961v-508.01c0.074219-4.7578 3.9844-8.5586 8.7461-8.4961h271.25v68.941l-13.574-6.8203c-2.4688-1.2383-5.3828-1.2383-7.8516 0l-13.574 6.8203v-38.316c0-4.832-3.918-8.75-8.75-8.75s-8.75 3.918-8.75 8.75v52.5c0 3.0352 1.5742 5.8516 4.1562 7.4453s5.8086 1.7344 8.5195 0.375l22.324-11.211 22.324 11.211c2.7109 1.3594 5.9375 1.2188 8.5195-0.375s4.1562-4.4102 4.1562-7.4453v-83.125h26.254c4.7617-0.0625 8.6719 3.7383 8.7461 8.4961z"/>
  <path fill="green" d="m481.25 319.38h-262.5c-4.832 0-8.75 3.918-8.75 8.75s3.918 8.75 8.75 8.75h262.5c4.832 0 8.75-3.918 8.75-8.75s-3.918-8.75-8.75-8.75z"/>
  <path fill="green" d="m481.25 354.38h-262.5c-4.832 0-8.75 3.918-8.75 8.75s3.918 8.75 8.75 8.75h262.5c4.832 0 8.75-3.918 8.75-8.75s-3.918-8.75-8.75-8.75z"/>
  <path fill="green" d="m481.25 249.38h-262.5c-4.832 0-8.75 3.918-8.75 8.75s3.918 8.75 8.75 8.75h262.5c4.832 0 8.75-3.918 8.75-8.75s-3.918-8.75-8.75-8.75z"/>
  <path fill="green" d="m481.25 284.38h-262.5c-4.832 0-8.75 3.918-8.75 8.75s3.918 8.75 8.75 8.75h262.5c4.832 0 8.75-3.918 8.75-8.75s-3.918-8.75-8.75-8.75z"/>
  <path fill="green" d="m481.25 214.38h-262.5c-4.832 0-8.75 3.918-8.75 8.75s3.918 8.75 8.75 8.75h262.5c4.832 0 8.75-3.918 8.75-8.75s-3.918-8.75-8.75-8.75z"/>
  <path fill="green" d="m481.25 144.38h-262.5c-4.832 0-8.75 3.918-8.75 8.75s3.918 8.75 8.75 8.75h262.5c4.832 0 8.75-3.918 8.75-8.75s-3.918-8.75-8.75-8.75z"/>
  <path fill="green" d="m481.25 179.38h-262.5c-4.832 0-8.75 3.918-8.75 8.75s3.918 8.75 8.75 8.75h262.5c4.832 0 8.75-3.918 8.75-8.75s-3.918-8.75-8.75-8.75z"/>
  <path fill="green" d="m363.12 389.38h-144.38c-4.832 0-8.75 3.918-8.75 8.75s3.918 8.75 8.75 8.75h144.38c4.832 0 8.75-3.918 8.75-8.75s-3.918-8.75-8.75-8.75z"/>
  <path fill="green" d="m218.75 126.88h144.38c4.832 0 8.75-3.918 8.75-8.75s-3.918-8.75-8.75-8.75h-144.38c-4.832 0-8.75 3.918-8.75 8.75s3.918 8.75 8.75 8.75z"/>
  <path fill="green" d="m363.12 424.38h-144.38c-4.832 0-8.75 3.918-8.75 8.75s3.918 8.75 8.75 8.75h144.38c4.832 0 8.75-3.918 8.75-8.75s-3.918-8.75-8.75-8.75z"/>
 </g>
</svg>
