<svg xmlns="http://www.w3.org/2000/svg" xmlns:xlink="http://www.w3.org/1999/xlink" version="1.1" x="0px" y="0px" viewBox="1 1 30 30" enable-background="new 0 0 32 32" xml:space="preserve">
  <path fill='gray' d="M27,7H9c-1.6542969,0-3,1.3457031-3,3v11c0,1.6542969,1.3457031,3,3,3h4.5195313l3.6992188,4.625  C17.4091797,28.8623047,17.6962891,29,18,29s0.5908203-0.1376953,0.78125-0.375L22.4804688,24H27c1.6542969,0,3-1.3457031,3-3V10  C30,8.3457031,28.6542969,7,27,7z M28,21c0,0.5517578-0.4482422,1-1,1h-5c-0.3037109,0-0.5908203,0.1376953-0.78125,0.375  L18,26.3994141L14.78125,22.375C14.5908203,22.1376953,14.3037109,22,14,22H9c-0.5517578,0-1-0.4482422-1-1V10  c0-0.5517578,0.4482422-1,1-1h18c0.5517578,0,1,0.4482422,1,1V21z M7,5C5.3457031,5,4,6.3457031,4,8v8c0,0.5527344-0.4472656,1-1,1  s-1-0.4472656-1-1V8c0-2.7568359,2.2431641-5,5-5h16c0.5527344,0,1,0.4472656,1,1s-0.4472656,1-1,1H7z"/>
</svg>
