<svg xmlns="http://www.w3.org/2000/svg" xmlns:xlink="http://www.w3.org/1999/xlink" version="1.1" x="0px" y="0px" viewBox="-5 0 110 100" style="enable-background:new 0 0 100 100;" xml:space="preserve">
  <g>
    <path fill="#10b981" d="M30.1,60.9c-8.6,0-17.2,2.5-25.7,7.3v9.7c1.4-0.5,2.9-0.8,4.3-0.8c7.2,0,13,5.8,13,13c0,3.2-1.2,6.3-3.3,8.7h29.4V64.2   C41.9,62,36,60.8,30.1,60.9L30.1,60.9z"/>
    <path fill="#10b981" d="M69.9,60.9c-5.9,0-11.8,1.1-17.7,3.4V99h29.4c-2.1-2.4-3.3-5.5-3.3-8.7c0-7.2,5.8-13,13-13c1.5,0,3,0.3,4.3,0.8v-9.7   C87.1,63.3,78.5,60.9,69.9,60.9L69.9,60.9z"/>
    <path fill="#10b981" d="M8.7,81.5c-4.8,0-8.7,3.9-8.7,8.7c0,4.8,3.9,8.7,8.7,8.7s8.7-3.9,8.7-8.7S13.5,81.5,8.7,81.5"/>
    <path fill="#10b981" d="M91.3,81.5c-4.8,0-8.7,3.9-8.7,8.7c0,4.8,3.9,8.7,8.7,8.7c4.8,0,8.7-3.9,8.7-8.7S96.1,81.5,91.3,81.5"/>
  </g>
  <g>
    <path fill="#10b981" d="M50,1.1c-21,0-38,17-38,38c0,6.8,1.8,13.4,5.3,19.2c4.6-1.2,9.1-1.8,13.7-1.8c6.4,0,12.7,1.1,19.1,3.3   c6.4-2.2,12.7-3.4,19.1-3.3c4.6,0,9.1,0.6,13.7,1.8c3.4-5.8,5.2-12.4,5.2-19.2C88,18.1,71,1.1,50,1.1z M45.6,43.7   c-0.4,1.7-1.3,2.7-2.3,4c-1.3,1.6-2.6,2.5-3.9,3.5c-1.1,0.9-2.2,1.6-3,2c-1.4-0.9-2.6-1.8-3.5-2.5c-1.1-0.9-2-1.6-3-2.7   c-1.2-1.3-1.9-2.1-2.4-3.4c-0.3-0.8-0.9-2.5-0.2-4.4c0.1-0.3,1-2.3,3.2-3.1c0.3-0.1,2.2-0.7,3.8,0.2c1.2,0.7,1.4,1.8,2.2,1.8   s0.8-1,2-1.7c1.6-1,3.5-0.4,3.8-0.3c0.3,0.1,1.9,0.6,2.9,2.2C46.2,41,45.8,42.8,45.6,43.7z M72.7,43.7c-0.4,1.7-1.3,2.7-2.3,4   c-1.3,1.6-2.6,2.5-3.9,3.5c-1.2,0.9-2.2,1.6-3,2c-1.4-0.9-2.6-1.8-3.5-2.5c-1.1-0.9-2-1.6-3-2.7c-1.2-1.3-1.9-2.1-2.4-3.4   c-0.3-0.8-0.9-2.5-0.2-4.4c0.1-0.3,1-2.3,3.2-3.1c0.3-0.1,2.2-0.7,3.8,0.2c1.2,0.7,1.4,1.8,2.2,1.8c0.8,0,0.8-1,2-1.7   c1.6-1,3.5-0.4,3.8-0.3c0.3,0.1,1.9,0.6,2.9,2.2C73.3,41,72.9,42.8,72.7,43.7z"/>
  </g>
</svg>
