<?xml version="1.0" encoding="UTF-8"?>
<svg width="700pt" height="700pt" version="1.1" viewBox="142 120 416 330" xmlns="http://www.w3.org/2000/svg" xmlns:xlink="http://www.w3.org/1999/xlink">
 <g>
  <path fill='gray' d="m349.27 140.04c-2.75 0.34375-5.0078 3.0039-4.8984 5.7695v22.383 0.17578c-10.953 0.23437-22.391 1.2031-34.121 2.7969l-5.25-21.16c-0.57031-2.5625-3.1523-4.5156-5.7734-4.3711-3.2852 0.20313-5.9023 3.8125-5.0742 6.9961l5.0742 20.285c-13.082 2.2266-26.367 5.1953-39.543 9.0938l-11.023-22.035c-0.98828-2.0547-3.3281-3.3711-5.5977-3.1484-3.707 0.25781-6.3008 4.9414-4.5508 8.2188l10.148 20.461c-13.043 4.3594-25.961 9.4766-38.223 15.516-3.9648-7.7812-8.1367-16.195-12.172-24.262-0.98828-2.0547-3.3281-3.3711-5.5977-3.1484-3.707 0.25781-6.3008 4.9414-4.5508 8.2188 4.0898 8.1523 8.1484 16.367 12.289 24.473-7.4609 4.0742-14.707 8.3789-21.562 13.121-2.4297 1.6484-3.1367 5.3555-1.4883 7.7812 1.6484 2.4258 5.3594 3.1328 7.7852 1.4883 47.18-32.625 113.48-49.312 164.82-49.312 51.195 0 117.67 16.836 164.82 49.312 2.4297 1.6484 6.1367 0.94141 7.7852-1.4883 1.6484-2.4258 0.94141-6.1328-1.4883-7.7812-6.8906-4.7461-14.148-8.9961-21.652-13.074 4.2969-8.0078 8.2852-16.34 12.379-24.52 1.8555-3.4805-1.3086-8.4336-5.25-8.2188-2.043 0.050781-4.0078 1.3125-4.8984 3.1484-4.0625 8.1328-8.168 16.289-12.195 24.422-12.312-6.0547-25.266-11.305-38.371-15.68l10.324-20.461c1.8555-3.4805-1.3086-8.4336-5.25-8.2188-2.043 0.050782-4.0078 1.3125-4.8984 3.1484l-11.023 22.207c-13.18-3.9102-26.461-7.0234-39.543-9.2695l5.0742-20.285c0.88672-3.4102-2.2539-7.2188-5.7734-6.9961-2.3867 0.16797-4.5547 2.0352-5.0742 4.3711l-5.25 21.16c-11.727-1.6055-23.188-2.5625-34.121-2.7969v-0.17578-22.383c0.125-3.2344-3.0859-6.1758-6.3008-5.7695zm0.69922 61.727c-35.594 0-77.531 9.5977-115.48 27.277-37.949 17.684-72.047 43.457-90.984 76.242-0.97656 1.6914-0.97656 3.9062 0 5.5977 11.062 19.148 26.918 36.711 46.191 51.934 2.3359 1.832 6.1289 1.375 7.9609-0.96094 1.832-2.3359 1.375-6.125-0.96094-7.957-17.305-13.672-31.148-29.211-41.293-45.816 17.652-28.598 48.52-52.453 83.812-68.898 20.926-9.75 43.184-16.797 64.738-21.16-35.645 17.18-60.367 53.496-60.367 95.652 0 58.652 47.695 106.32 106.38 106.32s106.38-47.668 106.38-106.32c0-42.156-24.719-78.473-60.367-95.652 21.559 4.3633 43.812 11.41 64.738 21.16 35.293 16.445 66.16 40.301 83.812 68.898-10.129 16.57-24.039 32.34-41.293 45.988-2.2891 1.832-2.707 5.5781-0.875 7.8672s5.582 2.707 7.875 0.875c19.211-15.199 35.152-32.824 46.191-51.934 0.97656-1.6914 0.97656-3.9062 0-5.5977-18.941-32.785-53.035-58.559-90.984-76.242-37.949-17.684-79.887-27.277-115.48-27.277zm0 16.789c52.637 0 95.184 42.523 95.184 95.129 0 52.605-42.551 95.129-95.184 95.129-52.637 0-95.184-42.523-95.184-95.129 0-52.605 42.551-95.129 95.184-95.129zm0 39.172c-30.922 0-55.992 25.051-55.992 55.957 0 30.902 25.066 55.957 55.992 55.957 30.922 0 55.992-25.055 55.992-55.957 0-8.9688-2.1953-17.492-5.9492-25.004-1.457 10.953-10.688 19.41-22.047 19.41-12.371 0-22.395-10.023-22.395-22.383 0-11.352 8.4609-20.574 19.422-22.031-7.5195-3.75-16.047-5.9453-25.02-5.9453zm5.5977 50.363c6.1836 0 11.199 5.0117 11.199 11.191s-5.0117 11.191-11.199 11.191c-6.1836 0-11.199-5.0117-11.199-11.191s5.0117-11.191 11.199-11.191z"/>
 </g>
</svg>
