<?xml version="1.0" encoding="UTF-8"?>
<svg width="700pt" height="700pt" version="1.1" viewBox="40 0 570 570" xmlns="http://www.w3.org/2000/svg" xmlns:xlink="http://www.w3.org/1999/xlink">
<g>
  <path fill="gray" d="m409.92 464.07c-14.281-5.3203-27.047-6.4414-36.793-5.9922l-14.336 32.93c-3.0781 7.0547 2.1289 14.953 9.8008 14.953h83.105c7.6719 0 12.824-7.8945 9.8008-14.953l-10.754-24.754c-12.32 2.5742-26.656 3.0781-40.77-2.1836z"/>
  <path fill="gray" d="m441.5 262.25v-205.69c0-19.488-15.848-35.336-35.336-35.336h-109.43s-0.33594-0.11328-0.55859-0.11328h-82.77s-0.33594 0.11328-0.55859 0.11328h-49.672c-33.207 0-60.258 27.047-60.258 60.258l0.003907 358.73c0 24.527 19.938 44.465 44.465 44.465h167.5c-5.3203 13.664-3.8086 28.953 4.2578 41.273 8.3984 12.824 22.566 20.496 37.91 20.496h106.06c15.344 0 29.512-7.6719 37.91-20.496s9.8008-28.895 3.6953-42.953l-36.457-83.832c6.1055-4.3125 9.8008-9.5742 9.8008-15.902 0-4.7031-2.1289-11.199-11.535-17.137 0.67188-0.33594 1.3438-0.61719 1.9609-0.89453 24.527-11.984 45.473-28.785 45.473-28.785l-31.246-32.258 41.047 11.594c27.16-21.727 40.879-70.617 40.879-70.617l-30.07-31.246h41.273c6.5508-22.566 14.168-112.45 14.168-112.45-70.449 34.551-117.71 99.121-148.62 160.78zm0.89453 112.84c2.0703-0.50391 4.1445-1.0625 6.2148-1.7344 2.8008 0.89453 5.375 1.9023 7.6172 3.0234 6.2734 3.1367 7.9531 5.8789 7.9531 6.9453 0 4.1445-15.121 13.273-44.352 15.008l22.566-23.184zm-261.74-339.86h25.703v135.24c0 2.9102 1.793 5.543 4.5352 6.5508 0.78516 0.28125 1.625 0.44922 2.4648 0.44922 1.9609 0 3.9219-0.83984 5.2656-2.3516l36.176-40.992 36.121 40.992c1.9023 2.1836 4.9844 2.9688 7.7266 1.9023 2.7422-1.0078 4.5352-3.6406 4.5352-6.5508v-135.24h102.98c11.762 0 21.336 9.5742 21.336 21.336v235.82c-9.5742 22.344-17.078 43.457-22.734 61.711h-2.1836c-30.07 1.2891-60.48 10.809-60.48 29.121 0 4.8164 2.1289 8.9609 5.7109 12.488h-167.16zm219.8 333.03c-3.3594 11.648-5.8242 21.559-7.6719 29.344-0.22266 0-0.50391 0-0.72656-0.054687-25.648-3.0234-36.008-11.312-36.008-14.281 0-4.3125 15.625-13.215 44.406-14.953zm-283.53-286.72c0-25.535 20.777-46.258 46.258-46.258h3.5273l-0.003906 360.48h-19.32c-11.762 0-22.512 4.6484-30.465 12.152zm30.465 389.14c-16.801 0-30.465-13.664-30.465-30.465 0-16.801 13.664-30.465 30.465-30.465l199.92 0.003906-26.488 60.93-173.49-0.003906zm344.57 17.922c4.1992 9.7422 3.3047 20.832-2.5195 29.68-5.8242 8.8477-15.625 14.168-26.207 14.168h-106.06c-10.586 0-20.383-5.3203-26.207-14.168-5.8242-8.8477-6.7773-19.992-2.5195-29.68l36.121-83.047c7.9531 2.9102 17.137 4.8711 26.098 5.9375 6.5508 0.72656 13.16 1.1211 19.602 1.1211 16.465 0 33.039-2.4062 45.695-7.1133l36.121 83.047z"/>
</g>
</svg>