<?xml version="1.0" encoding="UTF-8"?>
<svg width="700pt" height="700pt" version="1.1" viewBox="100 25 500 500" xmlns="http://www.w3.org/2000/svg">
 <path fill="white" d="m105 122.5c0-9.6602 7.8242-17.5 17.5-17.5h300.72c7.2461-20.316 26.496-35 49.281-35s42.035 14.684 49.281 35h55.719c9.6758 0 17.5 7.8398 17.5 17.5s-7.8242 17.5-17.5 17.5h-55.719c-7.2461 20.316-26.496 35-49.281 35s-42.035-14.684-49.281-35h-300.72c-9.6758 0-17.5-7.8398-17.5-17.5zm472.5 140h-248.22c-7.2461-20.316-26.496-35-49.281-35s-42.035 14.684-49.281 35h-108.22c-9.6758 0-17.5 7.8398-17.5 17.5s7.8242 17.5 17.5 17.5h108.22c7.2461 20.316 26.496 35 49.281 35s42.035-14.684 49.281-35h248.22c9.6758 0 17.5-7.8398 17.5-17.5s-7.8242-17.5-17.5-17.5zm0 157.5h-55.719c-7.2461-20.316-26.496-35-49.281-35s-42.035 14.684-49.281 35h-300.72c-9.6758 0-17.5 7.8398-17.5 17.5s7.8242 17.5 17.5 17.5h300.72c7.2461 20.316 26.496 35 49.281 35s42.035-14.684 49.281-35h55.719c9.6758 0 17.5-7.8398 17.5-17.5s-7.8242-17.5-17.5-17.5z"/>
</svg>
