<svg xmlns="http://www.w3.org/2000/svg" viewBox="2 1 60 60" x="0px" y="0px">
  <g>
    <path d="M35,44V40h3a1,1,0,0,0,1-1V36.94a9,9,0,0,0,7.91-7.73c11.35-2.5,10-17.16,10-17.31a1,1,0,0,0-1-.9H47V8a1,1,0,0,0-1-1H38.5a1,1,0,0,0-.84.46,1,1,0,0,0-.07,1l3,6.33-2.4,5a1,1,0,0,0-.1.43v1.32l-1.35-1.28,2.2-4.81a1,1,0,0,0-.1-1l-5-7A1,1,0,0,0,33,7H18a1,1,0,0,0-1,1v3H8.06a1,1,0,0,0-1,.9c0,.15-1.32,14.81,10,17.31A9,9,0,0,0,25,36.94V39a1,1,0,0,0,1,1h3v4a1,1,0,0,0,.85,1c-.33,1.42-1.44,4.11-5.17,6H18a1,1,0,0,0-1,1v4a1,1,0,0,0,1,1H46a1,1,0,0,0,1-1V52a1,1,0,0,0-1-1H39.32c-3.74-1.92-4.85-4.6-5.18-6A1,1,0,0,0,35,44ZM47,17h3.86c-.2,1.67-1,5-3.86,6.47Zm8-4c.09,2.94-.26,12-8,14.14V25.65c4.67-1.77,5.94-7,5.94-9.65a1,1,0,0,0-1-1H47V13ZM17,23.47C14.11,22,13.34,18.67,13.14,17H17ZM9,13h8v2H12.06a1,1,0,0,0-1,1c0,2.65,1.27,7.88,5.94,9.65v1.49C9.26,25,8.91,15.94,9,13ZM19,28V9H32.49l4.36,6.11-2.26,4.94a1,1,0,0,0,.22,1.15l3.57,3.36a1,1,0,0,0,1.08.19,1,1,0,0,0,.6-.92V20.42l2.51-5.24a1,1,0,0,0,0-.85L40.07,9H45V28a7,7,0,0,1-7,7H26A7,7,0,0,1,19,28Zm8,9H37v1H27Zm6,3v3H31V40ZM45,55H19V53H45Zm-9.29-4H28.29a10.33,10.33,0,0,0,3.6-6h.22A10.33,10.33,0,0,0,35.71,51Z"/>
  </g>
</svg>