<?xml version="1.0" encoding="UTF-8"?>
<svg xmlns:dc="http://purl.org/dc/elements/1.1/" xmlns:cc="http://creativecommons.org/ns#" xmlns:rdf="http://www.w3.org/1999/02/22-rdf-syntax-ns#" xmlns:svg="http://www.w3.org/2000/svg" xmlns="http://www.w3.org/2000/svg" xmlns:sodipodi="http://sodipodi.sourceforge.net/DTD/sodipodi-0.dtd" xmlns:inkscape="http://www.inkscape.org/namespaces/inkscape" x="0px" y="0px" viewBox="0.75 -0.75 7 10" version="1.1">
  <g transform="translate(0,-288.53332)">
    <path fill="gray" d="m 4.2324219,289.32617 c -1.8980617,0 -3.439452,1.54335 -3.43945315,3.44141 -4.59e-6,1.89806 1.54138735,3.43945 3.43945315,3.43945 1.8980658,0 3.4414108,-1.54139 3.4414062,-3.43945 -1.1e-6,-1.89806 -1.5433445,-3.44141 -3.4414062,-3.44141 z m 0,0.26563 c 1.7550703,0 3.1757802,1.42071 3.1757812,3.17578 4.3e-6,1.75507 -1.4207071,3.17383 -3.1757812,3.17383 -1.7550741,0 -3.1738324,-1.41876 -3.1738281,-3.17383 1e-6,-1.75507 1.4187578,-3.17578 3.1738281,-3.17578 z"/>
    <path fill="gray" d="m 4.2324219,291.70898 c -0.5829337,0 -1.0566395,0.47566 -1.0566407,1.0586 1.2e-6,0.58293 0.473707,1.05664 1.0566407,1.05664 0.5829336,0 1.0585926,-0.47371 1.0585937,-1.05664 -1.1e-6,-0.58294 -0.4756601,-1.0586 -1.0585937,-1.0586 z m 0,0.26368 c 0.4399424,0 0.794921,0.35498 0.7949219,0.79492 -9e-7,0.43994 -0.3549795,0.79297 -0.7949219,0.79297 -0.4399424,0 -0.7929679,-0.35303 -0.7929688,-0.79297 9e-7,-0.43994 0.3530264,-0.79492 0.7929688,-0.79492 z"/>
    <path fill="gray" d="m 4.2324219,292.30273 c -0.254153,0 -0.4628915,0.2107 -0.4628907,0.46485 -8e-7,0.25415 0.2087377,0.46289 0.4628907,0.46289 0.254153,0 0.4648446,-0.20874 0.4648437,-0.46289 9e-7,-0.25415 -0.2106907,-0.46485 -0.4648437,-0.46485 z m 0,0.26563 c 0.1111611,0 0.1992191,0.0881 0.1992187,0.19922 4e-7,0.11116 -0.088058,0.19726 -0.1992187,0.19726 -0.1111612,0 -0.197266,-0.0861 -0.1972657,-0.19726 -3e-7,-0.11116 0.086104,-0.19922 0.1972657,-0.19922 z"/>
    <path fill="gray" d="m 0.9921875,292.30273 0,0.26563 2.3808594,0 0,-0.26563 -2.3808594,0 z"/>
    <path fill="gray" d="m 0.9921875,292.83203 0,0.26563 2.3808594,0 0,-0.26563 -2.3808594,0 z"/>
    <path fill="gray" d="m 5.09375,292.30273 0,0.26563 2.3808594,0 0,-0.26563 -2.3808594,0 z"/>
    <path fill="gray" d="m 5.09375,292.83203 0,0.26563 2.3808594,0 0,-0.26563 -2.3808594,0 z"/>
  </g>
</svg>
