<?xml version="1.0" encoding="UTF-8"?>
<svg width="700pt" height="700pt" version="1.1" viewBox="0 -50 700 700" xmlns="http://www.w3.org/2000/svg" xmlns:xlink="http://www.w3.org/1999/xlink">
 <g>
  <path fill="gray" d="m549.41 82.824 80.586-82.824v220.64h-223.5l82.656-81.145c-12.344-12.633-26.543-23.301-42.113-31.641-30.723-16.805-65.348-25.176-100.36-24.266-35.008 0.90625-69.152 11.066-98.965 29.441-29.809 18.379-54.227 44.316-70.766 75.184-1.9414 3.5977-3.5898 7.3398-4.9297 11.199-3.5391 10.859-11.32 19.824-21.57 24.859-10.254 5.0312-22.105 5.6992-32.859 1.8555-10.73-3.8203-19.434-11.863-24.086-22.258-4.6523-10.398-4.8555-22.242-0.55469-32.793 20.344-49.672 55.074-92.129 99.734-121.91 52.859-36.25 116.59-53.195 180.47-47.984 63.887 5.2109 124.03 32.262 170.31 76.602 1.3438 1.2852 2.8555 2.4062 5.9336 5.0391z"/>
  <path fill="gray" d="m70 558.94v-218.4l224-0.003906-83.105 81.594c9.5742 7.5586 18.258 15.289 28 21.785v-0.003906c37.262 24.641 81.719 36.047 126.24 32.391 44.52-3.6562 86.52-22.16 119.26-52.547 20.047-19.004 36.047-41.863 47.043-67.203 6-13.734 18.875-23.223 33.77-24.891 14.895-1.6719 29.551 4.7344 38.445 16.797 8.8906 12.066 10.672 27.961 4.6719 41.695-14.449 32.938-34.922 62.891-60.367 88.312-61.656 59.641-135.24 87.137-221.03 80.582-64.18-4.8398-124.63-32.051-170.8-76.887l-3.5859-3.3047-80.977 81.145z"/>
 </g>
</svg>
