<svg xmlns="http://www.w3.org/2000/svg" xmlns:xlink="http://www.w3.org/1999/xlink" version="1.1" x="0px" y="0px" viewBox="0 0 200 200" style="enable-background:new 0 0 200 200;" xml:space="preserve">
  <g>
    <path d="M100.2,88.1c16.4,0,29.7-13.3,29.7-29.7s-13.3-29.7-29.7-29.7S70.5,42,70.5,58.4S83.8,88.1,100.2,88.1z M100.2,32.7   c14.2,0,25.7,11.5,25.7,25.7s-11.5,25.7-25.7,25.7S74.5,72.6,74.5,58.4S86,32.7,100.2,32.7z"/>
    <path d="M44.9,90.5c13.6,0,24.6-11,24.6-24.6s-11-24.6-24.6-24.6s-24.6,11-24.6,24.6S31.3,90.5,44.9,90.5z M44.9,45.3   c11.4,0,20.6,9.2,20.6,20.6s-9.2,20.6-20.6,20.6s-20.6-9.2-20.6-20.6S33.5,45.3,44.9,45.3z"/>
    <path d="M156,90.5c13.6,0,24.6-11,24.6-24.6s-11-24.6-24.6-24.6s-24.6,11-24.6,24.6S142.4,90.5,156,90.5z M156,45.3   c11.4,0,20.6,9.2,20.6,20.6s-9.2,20.6-20.6,20.6s-20.6-9.2-20.6-20.6S144.6,45.3,156,45.3z"/>
    <path d="M155.9,91.7c-10,0-19.5,4.6-25.8,12.4c-7.4-8.2-18-13.3-29.9-13.3c-11.7,0-22.3,5-29.7,13.1c-6.3-7.6-15.7-12.2-25.6-12.2   c-18.4,0-33.3,14.9-33.3,33.3v24.6c0,1.1,0.9,2,2,2s2-0.9,2-2V125c0-16.2,13.1-29.3,29.3-29.3c9.1,0,17.4,4.1,23,11.3   c-5,6.7-8,15.1-8,24.1v30c0,1.1,0.9,2,2,2s2-0.9,2-2v-30c0-20,16.3-36.3,36.3-36.3c20,0,36.3,16.3,36.3,36.3v30c0,1.1,0.9,2,2,2   s2-0.9,2-2v-30c0-8.9-2.9-17.1-7.8-23.8c5.6-7.3,14.2-11.6,23.2-11.6c16.2,0,29.3,13.1,29.3,29.3v24.6c0,1.1,0.9,2,2,2s2-0.9,2-2   V125C189.2,106.6,174.3,91.7,155.9,91.7z"/>
  </g>
</svg>
