<svg xmlns="http://www.w3.org/2000/svg" xmlns:xlink="http://www.w3.org/1999/xlink" xml:space="preserve" version="1.1" style="shape-rendering:geometricPrecision;text-rendering:geometricPrecision;image-rendering:optimizeQuality;" viewBox="0 0 333 350" x="0px" y="0px" fill-rule="evenodd" clip-rule="evenodd">
  <g>
    <path class="fil0" d="M179.61 114.39l19.28 29.78c0.17,0.26 0.34,0.46 0.51,0.58 0.22,0.14 0.46,0.25 0.73,0.32l34.28 9.14c2.57,0.68 4.82,1.94 6.67,3.68 1.84,1.74 3.23,3.94 4.05,6.47 0.83,2.51 0.99,5.09 0.53,7.58 -0.46,2.5 -1.56,4.86 -3.23,6.92l-22.36 27.54c-0.18,0.22 -0.31,0.46 -0.39,0.68l-0.08 0.8 1.9 35.43c0.14,2.62 -0.36,5.14 -1.44,7.43 -1.08,2.31 -2.74,4.31 -4.89,5.88 -2.13,1.54 -4.54,2.5 -7.07,2.83 -2.49,0.33 -5.05,0.02 -7.53,-0.94l-33.13 -12.76c-0.24,-0.09 -0.5,-0.14 -0.76,-0.14 -0.26,0 -0.52,0.05 -0.77,0.14l-33.1 12.76c-2.47,0.95 -5.05,1.26 -7.56,0.94 -2.52,-0.33 -4.94,-1.28 -7.07,-2.83 -2.16,-1.57 -3.82,-3.57 -4.91,-5.85l-0.2 -0.45c-0.94,-2.16 -1.37,-4.53 -1.24,-7.01l1.9 -35.43c0.02,-0.32 -0.01,-0.59 -0.07,-0.81 -0.08,-0.22 -0.21,-0.45 -0.39,-0.67l-22.36 -27.54c-1.68,-2.06 -2.77,-4.42 -3.23,-6.92 -0.46,-2.49 -0.3,-5.07 0.52,-7.58 0.82,-2.53 2.2,-4.71 4.04,-6.44l0.52 -0.45c1.75,-1.52 3.85,-2.63 6.17,-3.25l34.28 -9.14c0.27,-0.07 0.51,-0.18 0.7,-0.32 0.19,-0.14 0.38,-0.34 0.53,-0.58l19.28 -29.78c1.44,-2.22 3.34,-3.98 5.56,-5.19 2.25,-1.22 4.76,-1.87 7.39,-1.87 2.62,0 5.14,0.65 7.39,1.87 2.22,1.21 4.12,2.96 5.56,5.19zm-56.2 -19c-3.39,-1.38 -5.02,-5.25 -3.65,-8.65 1.38,-3.39 5.25,-5.02 8.65,-3.65 3.25,1.33 5.9,3.51 7.74,6.24 1.85,2.75 2.88,6.02 2.88,9.5 0,3.48 -1.03,6.75 -2.88,9.5 -1.85,2.75 -4.5,4.95 -7.74,6.27l-11.76 4.78c-0.48,0.2 -0.9,0.47 -1.23,0.8 -0.3,0.31 -0.57,0.73 -0.77,1.24l-4.83 11.76c-1.33,3.25 -3.51,5.9 -6.24,7.74 -2.75,1.85 -6.02,2.88 -9.5,2.88 -3.47,0 -6.75,-1.03 -9.5,-2.88 -2.76,-1.85 -4.95,-4.5 -6.27,-7.74l-4.78 -11.76c-0.19,-0.46 -0.46,-0.87 -0.81,-1.22 -0.35,-0.35 -0.76,-0.63 -1.22,-0.81l-11.76 -4.8c-3.24,-1.3 -5.89,-3.49 -7.74,-6.25 -1.85,-2.75 -2.88,-6.02 -2.88,-9.5 0,-3.48 1.03,-6.74 2.87,-9.49 1.84,-2.75 4.49,-4.93 7.71,-6.25l11.79 -4.81c0.52,-0.23 0.93,-0.49 1.22,-0.78 0.35,-0.38 0.63,-0.79 0.81,-1.25l4.81 -11.77c1.33,-3.25 3.51,-5.9 6.25,-7.74 2.75,-1.85 6.02,-2.87 9.5,-2.87 3.48,0 6.74,1.03 9.5,2.87 2.76,1.85 4.95,4.5 6.27,7.74l4.79 11.77c1.38,3.39 -0.25,7.27 -3.65,8.65 -3.39,1.38 -7.27,-0.25 -8.65,-3.65l-4.83 -11.77c-0.3,-0.74 -0.77,-1.33 -1.32,-1.7 -0.56,-0.37 -1.28,-0.58 -2.1,-0.58 -0.82,0 -1.55,0.21 -2.1,0.58 -0.58,0.39 -1.06,0.98 -1.35,1.7l-4.81 11.77c-0.91,2.21 -2.13,4.1 -3.68,5.65 -1.61,1.58 -3.49,2.82 -5.65,3.7l-11.74 4.78c-0.74,0.3 -1.34,0.78 -1.72,1.35 -0.37,0.56 -0.58,1.28 -0.58,2.1 0,0.82 0.21,1.55 0.59,2.11 0.37,0.56 0.96,1.02 1.7,1.32l11.76 4.83c2.21,0.91 4.11,2.14 5.65,3.68 1.54,1.54 2.77,3.43 3.68,5.65l4.83 11.76c0.3,0.74 0.77,1.32 1.32,1.7 0.56,0.37 1.29,0.59 2.11,0.59 0.82,0 1.55,-0.21 2.1,-0.59 0.57,-0.39 1.05,-0.97 1.35,-1.7l4.79 -11.76c0.87,-2.15 2.12,-4.04 3.7,-5.62 1.58,-1.57 3.46,-2.81 5.65,-3.7l11.76 -4.83c0.74,-0.3 1.32,-0.77 1.7,-1.32 0.37,-0.56 0.59,-1.28 0.59,-2.11 0,-0.82 -0.21,-1.55 -0.59,-2.1 -0.39,-0.57 -0.97,-1.05 -1.7,-1.35zm124.11 21.03c1.38,-3.39 5.25,-5.02 8.65,-3.65 3.39,1.38 5.02,5.25 3.65,8.65l-4.81 11.76c-1.33,3.25 -3.51,5.9 -6.24,7.74 -2.75,1.85 -6.02,2.88 -9.5,2.88 -3.47,0 -6.75,-1.03 -9.5,-2.88 -2.76,-1.85 -4.95,-4.5 -6.27,-7.74l-4.79 -11.76c-0.23,-0.51 -0.49,-0.93 -0.8,-1.24 -0.33,-0.33 -0.75,-0.6 -1.23,-0.8l-11.76 -4.8c-3.24,-1.3 -5.89,-3.49 -7.74,-6.25 -1.85,-2.75 -2.88,-6.02 -2.88,-9.5 0,-3.48 1.03,-6.74 2.87,-9.49 1.84,-2.75 4.49,-4.93 7.71,-6.25l11.79 -4.81c0.48,-0.19 0.9,-0.46 1.23,-0.8 0.31,-0.33 0.57,-0.74 0.77,-1.23l4.83 -11.77c1.33,-3.25 3.51,-5.9 6.25,-7.74 2.75,-1.85 6.02,-2.87 9.5,-2.87 3.48,0 6.74,1.03 9.5,2.87 2.76,1.85 4.95,4.5 6.27,7.74l4.78 11.77c0.19,0.46 0.46,0.87 0.81,1.22l0.2 0.22c0.28,0.24 0.62,0.44 1.01,0.59l11.77 4.81c3.25,1.33 5.9,3.51 7.74,6.24 1.85,2.75 2.88,6.02 2.88,9.5 0,3.48 -1.03,6.75 -2.88,9.5 -1.85,2.75 -4.5,4.95 -7.74,6.27 -3.41,1.38 -7.29,-0.26 -8.67,-3.67 -1.38,-3.41 0.26,-7.29 3.67,-8.67 0.74,-0.3 1.32,-0.77 1.7,-1.32 0.37,-0.56 0.59,-1.28 0.59,-2.11 0,-0.82 -0.21,-1.55 -0.59,-2.1 -0.39,-0.57 -0.97,-1.05 -1.7,-1.35l-11.77 -4.81c-1.96,-0.8 -3.69,-1.89 -5.15,-3.23l-0.49 -0.44c-1.54,-1.54 -2.77,-3.43 -3.68,-5.65l-4.83 -11.77c-0.3,-0.74 -0.77,-1.33 -1.32,-1.7 -0.56,-0.37 -1.28,-0.58 -2.1,-0.58 -0.82,0 -1.55,0.21 -2.1,0.58 -0.58,0.39 -1.06,0.98 -1.35,1.7l-4.79 11.77c-0.89,2.19 -2.13,4.08 -3.7,5.65 -1.58,1.55 -3.46,2.79 -5.65,3.68l-11.74 4.81c-0.74,0.3 -1.34,0.78 -1.72,1.35 -0.37,0.56 -0.58,1.28 -0.58,2.1 0,0.82 0.21,1.55 0.59,2.11 0.37,0.56 0.96,1.02 1.7,1.32l11.76 4.83c2.18,0.89 4.06,2.13 5.62,3.68 1.6,1.61 2.85,3.49 3.72,5.65l4.81 11.76c0.3,0.74 0.77,1.32 1.32,1.7 0.56,0.37 1.29,0.59 2.11,0.59 0.82,0 1.55,-0.21 2.1,-0.59 0.57,-0.39 1.05,-0.97 1.35,-1.7l4.81 -11.76zm-200.01 100.48c-1.38,3.39 -5.25,5.02 -8.65,3.65 -3.39,-1.38 -5.02,-5.25 -3.65,-8.65l4.81 -11.77c1.33,-3.25 3.51,-5.9 6.25,-7.74 2.75,-1.85 6.02,-2.87 9.5,-2.87 3.48,0 6.74,1.03 9.5,2.87 2.76,1.85 4.95,4.5 6.27,7.74l4.79 11.77c0.2,0.48 0.47,0.9 0.8,1.23 0.33,0.33 0.75,0.6 1.23,0.8l11.76 4.81c3.25,1.33 5.9,3.51 7.74,6.24 1.85,2.75 2.88,6.02 2.88,9.5 0,3.48 -1.03,6.75 -2.88,9.5 -1.85,2.75 -4.5,4.95 -7.74,6.27l-11.76 4.78c-0.48,0.2 -0.9,0.47 -1.23,0.8 -0.31,0.33 -0.57,0.75 -0.77,1.23l-4.83 11.76c-1.33,3.25 -3.51,5.9 -6.24,7.74 -2.75,1.85 -6.02,2.88 -9.5,2.88 -3.47,0 -6.75,-1.03 -9.5,-2.88 -2.76,-1.85 -4.95,-4.5 -6.27,-7.74l-4.78 -11.76c-0.23,-0.52 -0.49,-0.93 -0.78,-1.22 -0.32,-0.32 -0.73,-0.58 -1.25,-0.79l-11.76 -4.83c-3.24,-1.3 -5.89,-3.49 -7.74,-6.25 -1.85,-2.75 -2.88,-6.02 -2.88,-9.5 0,-3.48 1.03,-6.74 2.87,-9.49 1.84,-2.75 4.49,-4.93 7.71,-6.25 3.39,-1.39 7.28,0.23 8.67,3.62 1.39,3.39 -0.23,7.28 -3.62,8.67 -0.74,0.3 -1.34,0.78 -1.72,1.35 -0.37,0.56 -0.58,1.28 -0.58,2.1 0,0.82 0.21,1.55 0.59,2.11 0.37,0.56 0.96,1.02 1.7,1.32l11.76 4.81c2.15,0.88 4.03,2.11 5.61,3.7l0.03 0.03c1.59,1.59 2.82,3.46 3.7,5.62l4.81 11.76c0.3,0.74 0.77,1.32 1.32,1.7 0.56,0.37 1.29,0.59 2.11,0.59 0.82,0 1.55,-0.21 2.1,-0.59 0.57,-0.39 1.05,-0.97 1.35,-1.7l4.79 -11.76c0.89,-2.19 2.13,-4.07 3.7,-5.65 1.58,-1.55 3.46,-2.79 5.65,-3.68l11.76 -4.83c0.74,-0.3 1.32,-0.77 1.7,-1.32 0.37,-0.56 0.59,-1.28 0.59,-2.11 0,-0.82 -0.21,-1.55 -0.59,-2.1 -0.39,-0.57 -0.97,-1.05 -1.7,-1.35l-11.76 -4.81c-2.18,-0.89 -4.06,-2.12 -5.62,-3.67 -1.58,-1.59 -2.81,-3.46 -3.7,-5.65l-4.83 -11.77c-0.3,-0.74 -0.77,-1.33 -1.32,-1.7 -0.56,-0.37 -1.28,-0.58 -2.1,-0.58 -0.82,0 -1.55,0.21 -2.1,0.58 -0.58,0.39 -1.06,0.98 -1.35,1.7l-4.81 11.77zm200.7 21.01c3.41,1.38 5.05,5.26 3.67,8.67 -1.38,3.41 -5.26,5.05 -8.67,3.67 -3.24,-1.31 -5.89,-3.51 -7.74,-6.27 -1.85,-2.75 -2.88,-6.02 -2.88,-9.5 0,-3.48 1.03,-6.74 2.87,-9.49 1.84,-2.75 4.49,-4.93 7.71,-6.25l11.79 -4.81c0.48,-0.2 0.91,-0.47 1.24,-0.8 0.3,-0.3 0.56,-0.72 0.77,-1.23l4.83 -11.77c1.33,-3.25 3.51,-5.9 6.25,-7.74 2.75,-1.85 6.02,-2.87 9.5,-2.87 3.48,0 6.74,1.03 9.5,2.87 2.76,1.85 4.95,4.5 6.27,7.74l4.78 11.77c0.19,0.48 0.47,0.9 0.8,1.23 0.33,0.31 0.74,0.57 1.23,0.77l11.76 4.83c3.25,1.33 5.9,3.51 7.74,6.24 1.85,2.75 2.88,6.02 2.88,9.5 0,3.48 -1.03,6.75 -2.88,9.5 -1.85,2.75 -4.5,4.95 -7.74,6.27l-11.76 4.78c-0.46,0.19 -0.87,0.46 -1.22,0.81l-0.2 0.19c-0.22,0.27 -0.42,0.61 -0.59,1.03l-4.83 11.76c-1.33,3.25 -3.51,5.9 -6.24,7.74 -2.75,1.85 -6.02,2.88 -9.5,2.88 -3.47,0 -6.75,-1.03 -9.5,-2.88 -2.76,-1.85 -4.95,-4.5 -6.27,-7.74l-4.79 -11.76c-1.38,-3.39 0.25,-7.27 3.65,-8.65 3.39,-1.38 7.27,0.25 8.65,3.65l4.83 11.76c0.3,0.74 0.77,1.32 1.32,1.7 0.56,0.37 1.29,0.59 2.11,0.59 0.82,0 1.55,-0.21 2.1,-0.59 0.57,-0.39 1.05,-0.97 1.35,-1.7l4.78 -11.76c0.8,-1.95 1.88,-3.67 3.26,-5.16l0.44 -0.49c1.54,-1.54 3.43,-2.77 5.65,-3.68l11.76 -4.83c0.74,-0.3 1.32,-0.77 1.7,-1.32 0.37,-0.56 0.59,-1.28 0.59,-2.11 0,-0.82 -0.21,-1.55 -0.59,-2.1 -0.39,-0.57 -0.97,-1.05 -1.7,-1.35l-11.76 -4.79c-2.19,-0.89 -4.07,-2.13 -5.65,-3.7 -1.55,-1.58 -2.79,-3.46 -3.68,-5.65l-4.83 -11.77c-0.3,-0.74 -0.77,-1.33 -1.32,-1.7 -0.56,-0.37 -1.28,-0.58 -2.1,-0.58 -0.82,0 -1.55,0.21 -2.1,0.58 -0.58,0.39 -1.06,0.98 -1.35,1.7l-4.79 11.77c-0.87,2.15 -2.12,4.04 -3.7,5.62 -1.59,1.58 -3.46,2.81 -5.65,3.7l-11.74 4.81c-0.74,0.3 -1.34,0.78 -1.72,1.35 -0.37,0.56 -0.58,1.28 -0.58,2.1 0,0.82 0.21,1.55 0.59,2.11 0.37,0.56 0.96,1.02 1.7,1.32zm-60.47 -86.5l-19.28 -29.78c-0.22,-0.35 -0.49,-0.61 -0.77,-0.76 -0.24,-0.13 -0.6,-0.2 -1.03,-0.2 -0.44,0 -0.79,0.07 -1.04,0.2 -0.28,0.15 -0.55,0.41 -0.77,0.76l-19.28 29.78c-1.07,1.65 -2.37,3.04 -3.86,4.12 -1.5,1.09 -3.22,1.89 -5.13,2.4l-34.28 9.14c-0.31,0.08 -0.58,0.2 -0.78,0.34l-0.13 0.13c-0.23,0.22 -0.42,0.54 -0.55,0.93 -0.13,0.4 -0.16,0.77 -0.11,1.08 0.06,0.3 0.22,0.62 0.47,0.93l22.36 27.54c1.25,1.53 2.16,3.19 2.73,4.95 0.57,1.8 0.81,3.66 0.7,5.62l-1.9 35.4c-0.02,0.34 0.03,0.67 0.13,0.94l0.06 0.13c0.13,0.29 0.37,0.56 0.69,0.79 0.34,0.25 0.68,0.4 0.97,0.44 0.31,0.04 0.67,-0.01 1.05,-0.16l33.1 -12.76c1.87,-0.72 3.72,-1.08 5.56,-1.08 1.83,0 3.69,0.36 5.55,1.08l33.1 12.76c0.37,0.15 0.73,0.2 1.05,0.16 0.29,-0.04 0.63,-0.19 0.98,-0.44 0.32,-0.23 0.56,-0.5 0.69,-0.77 0.15,-0.29 0.21,-0.66 0.19,-1.08l-1.9 -35.43c-0.09,-1.8 0.1,-3.53 0.59,-5.19l0.12 -0.4c0.57,-1.77 1.49,-3.43 2.73,-4.95l22.36 -27.54c0.25,-0.31 0.41,-0.63 0.47,-0.93 0.06,-0.31 0.02,-0.68 -0.11,-1.08 -0.11,-0.39 -0.3,-0.69 -0.52,-0.89 -0.24,-0.23 -0.57,-0.4 -0.97,-0.5l-34.25 -9.14c-1.92,-0.51 -3.63,-1.31 -5.13,-2.4 -1.51,-1.11 -2.81,-2.49 -3.87,-4.12z"/>
  </g>
</svg>
