<?xml version="1.0" encoding="UTF-8"?>
<svg width="700pt" height="700pt" version="1.1" viewBox="0 0 700 500" xmlns="http://www.w3.org/2000/svg" xmlns:xlink="http://www.w3.org/1999/xlink">
 <g>
  <path fill="green" d="m317.86 287.62c-7.3906 0-7.3906-11.199 0-11.199h64.398c7.3906 0 7.3906 11.199 0 11.199zm0-29.121c-7.3906 0-7.3906-11.199 0-11.199h64.398c7.3906 0 7.3906 11.199 0 11.199zm0-29.121c-7.3906 0-7.3906-11.199 0-11.199h64.398c7.3906 0 7.3906 11.199 0 11.199zm32.145-54.207c44.352 0 80.305 35.953 80.305 80.305 0 47.824-41.551 85.121-89.266 79.855l-18.367 24.078c-3.2461 4.1445-10.191 2.0156-10.078-3.6953l0.22266-28.785c-48.047-24.977-58.352-89.602-19.824-128.13 14.785-14.668 34.832-23.629 57.008-23.629zm48.945 31.473c-26.992-26.992-70.785-26.992-97.777 0-34.047 34.047-23.633 91.504 19.824 111.66 1.9023 0.89453 3.2461 2.8008 3.2461 5.1523l-0.11328 15.902 9.8555-12.992c2.6875-3.6953 6.0469-2.1289 10.754-1.793 40.207 3.0234 74.48-28.672 74.48-68.992 0-19.148-7.8398-36.398-20.27-48.941zm-136.53 186.82h28.113c4.3672-17.473 26.32-23.855 39.199-10.977 3.0234 2.9102 5.1523 6.7188 6.1602 10.977h28.113c4.3672-17.473 26.32-23.855 39.199-10.977 2.9102 2.9102 5.1523 6.7188 6.1602 10.977h28.113c4.3672-17.473 26.32-23.855 39.199-10.977 14.672 14.672 4.2578 39.871-16.465 39.871-10.863 0-20.16-7.5039-22.734-17.809h-28.113c-4.3672 17.473-26.32 23.855-39.199 10.977-2.9102-2.9102-5.1523-6.7188-6.1602-10.977h-28.113c-4.3672 17.473-26.32 23.855-39.199 10.977-2.9102-2.9102-5.1523-6.7188-6.1602-10.977h-28.113c-4.3672 17.473-26.32 23.855-39.199 10.977-14.672-14.672-4.2578-39.871 16.574-39.871 10.754 0 20.051 7.3906 22.625 17.809zm-14.109-3.0234c-7.6172-7.6172-20.719-2.2383-20.719 8.625 0 10.754 13.105 16.238 20.719 8.625 4.7031-4.8203 4.7031-12.547 0-17.25zm220.64 0c-7.6172-7.6172-20.832-2.2383-20.832 8.625 0 10.754 13.105 16.238 20.832 8.625 4.8164-4.8203 4.8164-12.547 0-17.25zm-73.586 0c-7.6172-7.6172-20.832-2.2383-20.832 8.625 0 10.754 13.105 16.238 20.832 8.625 4.8164-4.8203 4.8164-12.547 0-17.25zm-73.473 0c-7.6172-7.6172-20.832-2.2383-20.832 8.625 0 10.754 13.105 16.238 20.832 8.625 4.707-4.8203 4.707-12.547 0-17.25zm28.113-347.98c15.344 0 23.07 18.594 12.207 29.457s-29.457 3.1367-29.457-12.207c0.003906-9.5234 7.7305-17.25 17.25-17.25zm4.2578 12.879c-3.8086-3.8086-10.414-1.1211-10.414 4.2578 0 5.375 6.6094 8.1758 10.414 4.3672 2.4609-2.3516 2.4609-6.1602 0-8.625zm-78.066-1.793h36.062c5.7109-29.457 42.113-41.551 64.176-20.496 5.7109 5.375 9.7422 12.543 11.312 20.496h36.062c6.4961 0 11.648 5.2656 11.648 11.648v7.9531h82.098c20.16 0 36.176 16.91 36.176 37.07v390.21c0 20.16-16.129 37.07-36.176 37.07l-335.21 0.003906c-20.047 0.11328-36.176-16.801-36.176-36.961v-390.21c0-20.16 16.129-37.07 36.176-37.07h82.098v-7.9531c0-3.2461 1.3438-6.1602 3.4727-8.2891 2.125-2.2383 5.0391-3.4727 8.2852-3.4727zm159.38 30.801v16.352h75.266c3.1367 0 5.6016 2.4648 5.6016 5.6016v378c0 3.1367-2.4648 5.6016-5.6016 5.6016h-321.44c-3.0234 0-5.6016-2.4648-5.6016-5.6016l0.003907-378c0-3.0234 2.4648-5.6016 5.6016-5.6016h75.266l-0.003906-16.352h-82.098c-14.223 0-25.199 11.871-25.199 25.984v390.21c0 14 11.09 25.871 24.977 25.871h335.33c14 0 24.977-11.871 24.977-25.871v-390.21c0-14.113-11.09-25.871-24.977-25.871h-82.098zm0 27.551v10.414c0 6.4961-5.2656 11.762-11.648 11.762h-147.73c-3.2461 0-6.1602-1.3438-8.2891-3.4727s-3.4727-5.0391-3.4727-8.2891v-10.414h-69.551v366.8h310.24l0.003906-366.8zm-118.38-47.152h-40.992c-0.11328 0-0.22266 0-0.33594 0.11328-0.33594 0.33594-0.11328 54.32-0.11328 57.457 0 0.11328 0.11328 0.22266 0.11328 0.33594l0.33594 0.11328h147.62l0.44922-0.55859v-57.234l-0.44922-0.22266h-40.992c-2.9102 0-5.375-2.3516-5.6016-5.2656-1.2305-23.07-29.23-34.273-46.031-18.367-4.8164 4.5938-7.9531 10.977-8.5117 17.922 0 3.3555-2.3516 5.707-5.4883 5.707z"/>
 </g>
</svg>
