<svg xmlns="http://www.w3.org/2000/svg" xmlns:xlink="http://www.w3.org/1999/xlink" version="1.1" x="0px" y="0px" viewBox="0 0 63 63" enable-background="new 0 0 64 64" xml:space="preserve">
  <g>
    <g>
      <path fill-rule="evenodd" clip-rule="evenodd" d="M45.214,34.474c-0.115-1.274,0.301-1.786-0.721-2.879    c1.113,0.206,0.252-0.378,0.721-0.48c-0.738-1.118-0.397-1.195-1.44-1.44c0.797-1.399-1.181-2.912-2.64-3.6    c0.186-0.054,0.474-0.007,0.479-0.24c-2.379-2.123-6.407-3.802-10.56-3.36c-0.238,0.722-0.849,1.071-0.72,2.16    c2.424,1.636,7.459,1.68,10.081,4.32c0.929,1.871,2.234,3.365,2.399,6c-0.957-0.132-0.723-0.132-1.68,0    c0.198,0.679-0.339,0.622-0.24,1.2c0.895,1.105,1.791,2.209,3.12,2.88c1.408-0.832,2.867-1.613,2.88-3.84    C46.036,34.737,45.576,35.131,45.214,34.474z"/>
      <path fill-rule="evenodd" clip-rule="evenodd" d="M47.613,21.994c0.893-1.748,3.183-2.098,3.601-4.32    c-2.212-2.392-3.954,2.165-5.521,1.92c-2.152-2.741-6.168-2.951-8.64-5.28c-0.871-0.189-2.556,0.956-2.4,0.24    c1.319-0.527-0.926-0.25-0.96-0.48c0.468-0.922,0.071-3.109,0.721-3.84c0.987-0.563,2.745-0.041,3.359-1.68    c0.28-0.746-0.109-2.128-1.2-2.4c0-0.08,0-0.16,0-0.24c-0.239,0-0.479,0-0.72,0c-1.133,0.409-2.311,0.583-3.12,0.72    c-0.019-0.337,0.698-0.274,0.24-0.48c0-0.08,0-0.16,0-0.24c-1.6,0-3.2,0-4.8,0c-4.012,0.826-0.733,5.057,1.92,4.08    c0.346,1.043-0.206,3.565,0.24,4.08c-5.558,1.123-9.079,2.919-12.72,5.52c-0.609-2.039-4.616-4.623-5.28-1.92    c-0.528,2.148,2.531,2.803,3.36,4.32c-2.778,2.742-4.197,6.843-5.28,11.28c0,1.279,0,2.56,0,3.84    c1.404,13.929,14.87,23.998,29.76,18.479C51.99,51.215,57.823,31.892,47.613,21.994z M32.014,55.114    c-0.656-0.016-1.749-0.66-2.64-0.72c-1.865-0.127-3.583-1.111-5.76-1.681c-0.202-0.278-0.317-0.644-0.24-1.2    c-0.244,0.156-0.248,0.552-0.72,0.48c-0.831-1.2-2.382-2.001-2.4-2.88c-0.802-0.572-1.117-0.148-1.92-0.72    c0.134-0.543,0.375,0.291,0.72-0.24c-1.021-0.1-0.89-1.351-2.16-1.2c0.345-1.637-2.223-5.622-3.36-8.4    c0.315,0.085,0.377,0.423,0.72,0.48c-0.857-2.544,0.322-8.054,0.72-10.08c1.499-1.021,1.409-2.95,2.4-4.32    c1.077-1.489,3.164-2.02,3.84-3.84c2.211-0.909,4.521-1.719,6.48-2.88c5.215-0.814,10.97,0.382,16.08,3.36    c4.252,4.085,8.244,9.415,6.96,17.76C49.399,47.704,40.769,55.319,32.014,55.114z"/>
      <path fill-rule="evenodd" clip-rule="evenodd" d="M39.934,42.634c-2.032-1.718-5.699-6.519-7.92-7.92    c0.041,0.521-0.852,0.109-1.2,0.24c-0.387,0.948-0.777,2.545,0,1.92c0.054,0.454-0.271,0.529-0.24,0.96    c0.324,0.075,0.458,0.342,0.96,0.24c0.07,1.378,1.75,1.607,2.64,2.399c2.169,1.931,3.71,5.19,6.72,5.04    C42.24,43.81,41.162,43.673,39.934,42.634z"/>
    </g>
  </g>
</svg>
