<svg xmlns="http://www.w3.org/2000/svg" data-name="Ebene 1" viewBox="0 0 80 75" x="0px" y="0px">
  <path d="M53.92,35.29a7,7,0,0,0,9.86,0L65.12,34a7,7,0,0,0,1.65-7.24,7,7,0,0,0-.31-9.53L57.82,8.54a7,7,0,0,0-9.53-.31,7,7,0,0,0-7.24,1.65l-1.34,1.34a7,7,0,0,0,0,9.86L44,25.39,25.39,44l-4.31-4.31a7,7,0,0,0-9.86,0L9.88,41.05a7,7,0,0,0-1.65,7.24,7,7,0,0,0,.31,9.53l8.64,8.64a7,7,0,0,0,9.53.31A7,7,0,0,0,34,65.12l1.34-1.34a7,7,0,0,0,0-9.86l-3.6-3.6L50.32,31.69Zm-1-23.79a1.94,1.94,0,0,1,1.4.58l8.63,8.63a2,2,0,0,1,0,2.79l-.62.62L50.88,12.7l.62-.62A1.94,1.94,0,0,1,52.89,11.5Zm-9.65,3.25,1.34-1.34a2,2,0,0,1,1.4-.57,2,2,0,0,1,1.31.51L61.44,27.5s.06,0,.08.07l.07.06a2,2,0,0,1,0,2.79l-1.34,1.34a2,2,0,0,1-1.4.57,2,2,0,0,1-1.39-.57L43.24,17.54A2,2,0,0,1,43.24,14.75ZM22.11,63.5a1.94,1.94,0,0,1-1.4-.58l-8.63-8.63a2,2,0,0,1,0-2.79l.62-.62L24.12,62.3l-.62.62A1.94,1.94,0,0,1,22.11,63.5Zm9.65-3.25-1.34,1.34a2,2,0,0,1-1.4.57,1.93,1.93,0,0,1-1.31-.51L13.56,47.5l-.08-.06-.07-.07a2,2,0,0,1,0-2.79l1.34-1.34a2,2,0,0,1,1.4-.57,2,2,0,0,1,1.39.57L31.76,57.46A2,2,0,0,1,31.76,60.25Zm-2.19-12-2.06-2.06L46.14,27.51l2.06,2.06Z"/>
</svg>
