<?xml version="1.0" encoding="UTF-8"?>
<svg width="700pt" height="700pt" version="1.1" viewBox="0 0 700 500" xmlns="http://www.w3.org/2000/svg" xmlns:xlink="http://www.w3.org/1999/xlink">
 <g>
  <path fill="green" d="m384.33 177.43c3.3555 0 6.3125-1.6602 8.1211-4.1914 0.066406 0 0.12891 0.003906 0.19531 0.003906 0.60938 0 1.2188-0.019532 1.8242-0.054688 2.9844-0.16406 5.6992-0.76172 8.0625-1.7773 2.2539-0.96484 3.3008-3.5781 2.332-5.8359s-3.582-3.3008-5.8359-2.332c-1.3867 0.59375-3.1328 0.96484-5.0703 1.0703-0.050781 0.003906-0.097656 0-0.14844 0.003906-0.011719-0.039062-0.027344-0.078124-0.042969-0.11719 0.089844-0.0625 0.18359-0.11328 0.27344-0.17969 0.98828-0.71875 1.875-1.5938 2.6406-2.6016 1.4883-1.9531 1.1094-4.7422-0.84375-6.2266-1.9531-1.4844-4.7422-1.1094-6.2266 0.84375-0.24609 0.32422-0.51172 0.58594-0.84766 0.83594-0.66797 0.5-1.4414 0.73828-2.1875 0.85156-0.72266-0.16406-1.4727-0.26172-2.25-0.26172-5.5117 0-9.9766 4.4648-9.9766 9.9766 0.003906 5.5156 4.4688 9.9922 9.9805 9.9922z"/>
  <path fill="green" d="m304.53 157.46c-0.76953 0-1.5117 0.09375-2.2266 0.25781-0.75391-0.11719-1.5508-0.36719-2.2461-0.88281-0.29297-0.21094-0.55469-0.47266-0.80078-0.80078-1.4883-1.9531-4.2773-2.332-6.2266-0.84375-1.9531 1.4883-2.332 4.2773-0.84375 6.2266 0.76562 1.0078 1.6562 1.8828 2.5898 2.5625 0.10937 0.082031 0.21875 0.14062 0.32812 0.21875-0.007812 0.023437-0.019531 0.046875-0.027343 0.070313-0.085938-0.003907-0.16797 0-0.25391-0.003907-1.9531-0.085937-3.6562-0.42969-4.918-0.99609-2.2383-1.0039-4.8711 0-5.875 2.2383-1.0039 2.2422 0 4.8711 2.2383 5.875 2.3125 1.0352 5.0625 1.6289 8.125 1.7617 0.55469 0.027343 1.1133 0.042968 1.6719 0.042968 0.10547 0 0.21094-0.007812 0.3125-0.007812 1.8086 2.5625 4.7852 4.2461 8.1523 4.2461 5.5234 0 9.9883-4.4766 9.9883-9.9883 0.003906-5.5078-4.4648-9.9766-9.9883-9.9766z"/>
  <path fill="green" d="m478.74 420.74c6.0234-4.4609 11.301-8.9766 15.09-12.938 1.043-1.0898 1.4609-2.6367 1.1094-4.1016-0.41016-1.7148-1.5352-3.2148-3.0234-4.4844 6.2734-2.8438 12.98-6.6641 16.301-9.7695 1.5391-1.4375 1.8555-3.7617 0.76172-5.5586-2-3.2852-4.1484-5.4883-6.2695-6.9531 18.852-13.238 27.672-32.426 30.633-64.941 0.125-1.3789-0.39844-2.7383-1.418-3.6758s-2.4219-1.3438-3.7812-1.1016c-3.2188 0.57031-6.3398 1.0898-9.3711 1.5977-24.965 4.1719-45.234 7.5547-60.91 28.738-1.4805-2.2852-3.4062-4.2461-5.5898-5.5078-1.7852-1.0352-4.0508-0.69922-5.4648 0.80859-4.5234 4.8242-7.7461 11.125-9.6328 18.82-1.7852-2.4375-3.6484-4.5117-5.25-5.4375-1.0312-0.59766-2.2578-0.75391-3.4062-0.4375-1.1484 0.31641-2.1211 1.082-2.6992 2.1211-1.9375 3.4766-3.7383 7.0312-5.4062 10.613-5.0312-3.4648-9.9961-6.5508-14.789-9.1914-4.6953-2.6602-9.5859-5.1211-14.941-7.5195l-0.082032-0.035157c-0.011718-0.003906-0.023437-0.011718-0.035156-0.015624-4.7891-2.1562-9.75-4.0938-15.035-5.8906v-0.61719c20.852-1.8945 44.5-8.0352 67.109-17.465 1.6562-0.69141 2.7344-2.3086 2.7344-4.1016v-73.781c12.582-0.78516 24.25-10.145 29.438-24.23 6.8164-18.539-0.36328-38.688-16.004-44.918-0.26953-0.10547-0.54688-0.20312-0.82422-0.30469 6.6914-31.555 4.9961-92.422-27.062-132.16-20.492-25.422-49.711-38.309-86.836-38.309-36.32 0-65.02 12.434-85.301 36.957-34.594 41.824-33.875 105.33-28.609 133.5-0.27734 0.097657-0.55469 0.19531-0.82031 0.30078-15.641 6.2305-22.82 26.379-16.004 44.918 5.1836 14.078 16.844 23.434 29.414 24.227v73.781c0 1.8164 1.1055 3.4492 2.7891 4.125 16.898 6.7812 42.07 15.152 67.766 17.492v0.56641c-5.3242 1.8125-10.301 3.75-15.059 5.8984-0.011718 0.003906-0.019531 0.007813-0.027343 0.011719-0.011719 0.003906-0.027344 0.011718-0.039063 0.015625-4.6602 2.043-9.6797 4.5586-14.926 7.4844-44.586 25.02-101 81.023-116.59 205.73-0.16016 1.2656 0.23438 2.5352 1.0781 3.4922 0.84766 0.95703 2.0586 1.5039 3.332 1.5039h64.375 0.011719 0.015625 196.07 0.015624 0.011719 6.0156 0.015625 0.011719 80.125c1.2734 0 2.4883-0.54688 3.332-1.5039 0.84375-0.95703 1.2344-2.2305 1.0781-3.4922-7.0625-56.461-20.895-99.273-43.422-134.26zm-48.109-62.934c1.9531 2.8242 4.1094 6.4688 4.9727 8.7656 0.73828 1.9688 2.75 3.1562 4.8359 2.8281 2.0781-0.32031 3.6484-2.0547 3.7617-4.1523 0.51172-9.5 2.625-17.121 6.2852-22.73 1.0156 1.6211 1.668 3.5352 1.5117 4.9336-0.22656 2.0938 1.043 4.0586 3.0469 4.707 2 0.65234 4.1875-0.19531 5.2305-2.0234 14.219-24.918 32.414-27.957 59.961-32.559 1.1992-0.19922 2.418-0.40234 3.6445-0.60938-3.6562 30.527-13.301 46.434-34.406 57.641-1.8281 0.97266-2.7461 3.0781-2.207 5.082 0.53906 2 2.3555 3.3789 4.4609 3.2852 2.3086-0.089843 4.6836-0.17969 7.2461 2.375-5.7969 3.8086-15.637 8.3125-19.738 9.0508-2.1641 0.39062-3.7148 2.3008-3.6562 4.4961 0.058594 2.1953 1.7148 4.0195 3.8984 4.2891 1.5156 0.1875 3.3398 0.85547 4.7617 1.5703-3.8359 3.5547-8.7109 7.4414-14.105 11.238-16.941 11.902-33.762 19.25-43.633 19.414 14.375-32.18 40.344-61.68 85.691-97.566 1.9258-1.5234 2.25-4.3203 0.72656-6.2422-1.5234-1.9219-4.3203-2.25-6.2422-0.72656-45.055 35.656-71.574 65.395-86.816 97.707-5.6523-15.109-3.3359-38.078 6.418-61.359 0.019531-0.035156 0.035156-0.074218 0.050781-0.10938 0.03125-0.066406 0.058594-0.13281 0.085937-0.20312 0.015626-0.042968 0.035157-0.082031 0.050782-0.125 1.2734-3.0117 2.668-6.0117 4.1641-8.9766zm-139.43 193.3c0.84766-1.8516 1.3281-3.8594 1.3789-5.9414 0.070313-1.2109-0.10156-2.207-0.25391-3.1094-0.55859-3.1172-2.1367-5.9766-4.4297-8.2266 2.2969-2.7109 3.625-6.0742 3.668-9.6172 0.078125-4.1875-1.5781-8.2031-4.4102-11.223 2.5703-2.9492 4.168-6.7109 4.2227-10.43 0.046875-2.6523-0.57031-5.2266-1.7734-7.543h77.367c0.019532 0 0.035156 0.003907 0.054688 0.003907 0.019531 0 0.039062-0.003907 0.058594-0.003907h78.234l-8.7812 28.914c-0.15625 0.35547-0.27734 0.72266-0.33594 1.1094l-7.9258 26.066zm-54.812 0c-2.6914-1.2188-4.5117-3.8672-4.4727-6.7109 0-0.66406 0.14062-1.3555 0.41406-2.0625 0.10938-0.16797 0.20703-0.34375 0.29688-0.52734 0.66406-1.4023 1.9844-2.6602 3.6328-3.4453 1.6172-0.77344 2.6094-2.4375 2.5234-4.2266-0.085937-1.7891-1.2383-3.3516-2.9219-3.9609-3.043-1.1055-4.9688-3.6641-4.9062-6.6211 0-1.2617 0.41016-2.4766 1.2188-3.6133 0.88672-1.1406 2.1523-2.0859 3.5508-2.6484 1.043-0.41797 2.1328-0.62891 3.2383-0.62891 0.058594 0 0.11328 0.003907 0.16797 0 2.4297 0 4.4141-1.9531 4.4414-4.3867 0.03125-2.4531-1.9336-4.4688-4.3867-4.5-1.6562-0.019532-3.2461 0.19531-4.8047 0.61719-2.2109-1.3281-3.6836-3.8359-3.6172-6.4883 0-1.2617 0.41016-2.4805 1.2148-3.6211 1.5781-2.043 4.1172-3.2617 6.793-3.2695h36.172c2.082 0.011719 4.0234 0.83203 5.4609 2.3047 1.375 1.4062 2.1133 3.2109 2.0781 5.0938-0.03125 2.1211-1.3711 4.4297-3.2695 5.8945-1.3164-0.33594-2.668-0.52734-4.0547-0.53516l-19.121 0.003906c-2.4531 0-4.4453 1.9883-4.4453 4.4453 0 2.4531 1.9883 4.4453 4.4453 4.4453h19.094c1.0273 0.007812 2.0273 0.21094 2.9609 0.59766 2.793 1.1758 4.6328 3.9023 4.5781 6.8125-0.027344 2.2344-1.3633 4.3359-3.5312 5.668l-22.523-0.003906c-2.4531 0-4.4453 1.9883-4.4453 4.4453 0 2.4531 1.9883 4.4453 4.4453 4.4453h22.801c2.207 1.0352 3.7812 2.8984 4.168 5.0391 0.074218 0.42578 0.13672 0.79297 0.125 0.98047-0.007813 0.082031-0.011719 0.16797-0.011719 0.25391-0.039063 2.3047-1.3906 4.457-3.6211 5.7773-0.30859 0.16016-0.58984 0.30078-0.86328 0.42969zm48.008-75.805 11.129-5.7695v16.598h-6.3125zm4.5391-119c2.2461-1.2305 4.4492-2.3867 6.5898-3.4492v98.781l-32.961-32.309zm-49.547-183.03c-0.10156-0.91016-0.17969-1.8359-0.26562-2.7656 5.1602-16.977 21-33.355 36.336-49.199 15.898-16.43 31.051-32.086 36.02-49.059 17.242 17.191 39 26.004 60.117 34.559 31.766 12.863 61.777 25.035 77.434 63.812-0.082031 0.89453-0.16406 1.7891-0.26172 2.6992-2.2812 23.133-6.5039 44.52-11.898 60.289-0.039063 0.089843-0.0625 0.1875-0.09375 0.28516-0.003906 0.007812-0.007813 0.019531-0.011719 0.027344-0.023437 0.070312-0.046875 0.13672-0.066406 0.20703-2.3359 6.7812-4.875 12.469-7.543 16.91-9.7617 16.27-32.547 37.871-59.504 46.859-8.6211 2.8633-17.227 4.3164-25.57 4.3164-8.1484 0-16.543-1.3828-24.949-4.1172-27.219-8.8516-50.25-30.598-60.129-47.059-2.6797-4.4727-5.2383-10.227-7.5977-17.094-0.019531-0.050781-0.035156-0.10156-0.058594-0.15234-0.019531-0.054687-0.03125-0.11328-0.054687-0.16797-5.4102-15.816-9.6328-37.211-11.902-60.352zm133.34 312.85c1.5352-4.5352 4.6602-10.738 10.602-12.801 1.5039-0.52344 3.2461-0.71484 5.1914-0.55859 5.0938 0.39453 10.602 2.9492 14.555 5.1914-5.1914 2.6328-10.328 5.3633-15.355 8.1641zm-6.0781-168.92c-14.848 3.5625-29.766 3.5703-44.445 0.011718v-8.9805c7.3516 1.8984 14.691 2.8711 21.879 2.8711 7.4062 0 14.973-1.0352 22.566-3.0508zm82.492 228.52c-0.70703 0.58594-1.4531 1.0352-2.2344 1.3398l-9.2305 3.6758 6.625-21.812c1.8125-0.56641 3.625-0.31641 5.1719 0.74219 1.5273 1.0391 2.6523 2.7578 3.1602 4.8438 0.98438 4.0391-0.46484 8.6562-3.4922 11.211zm5.9297-30.699-7.4492 2.9727 6.9844-23c2.6133 0.83984 5.3359 3.9336 6.1836 7.3828 0.19531 0.87891 0.29297 1.7656 0.29297 2.6367 0 4.3906-2.5312 8.6016-6.0117 10.008zm6.6836-31.453-10.941 2.5508h-44.18c2.4297-1.2383 4.8672-2.457 7.3164-3.6484 19.129-9.293 35.715-15.602 43.234-16.465 7.5938-0.78906 9.1914 2.3438 10.086 5.3477 1.5039 5.0078-1.6367 10.48-5.5156 12.215zm-55.277-13.895c-3.7656-2.0547-8.3867-4.1094-13.172-5.1484v-0.40234l19.984-19.578c-2.8477 8.0312-5.1055 16.344-6.8125 25.129zm10.375-102.81c-9.9688 25.324-11.691 49.629-4.7188 66.371l-18.828 18.445v-98.812c2.7461 1.3594 5.4023 2.75 7.9883 4.2148 5.043 2.7812 10.266 6.0625 15.559 9.7812zm49.625-154.26c-3.5508 9.6484-11.168 16.555-19.344 18.137 4.3555-14.359 7.7344-31.777 9.8945-51.016 10.125 5.168 14.379 19.473 9.4492 32.879zm-244.79 0c-4.9297-13.406-0.67578-27.711 9.4453-32.883 2.1523 19.215 5.5312 36.629 9.8945 51.012-8.168-1.5781-15.789-8.4844-19.34-18.129zm54.34 151.53-22.82 54.547c-0.70312 1.6797-0.30859 3.6172 0.98828 4.8906l38.285 37.527-15.887 8.2422c-2.0859 1.082-2.9688 3.6016-2.0156 5.75l4.9102 11.039h-38.184v-37.246c0-2.4531-1.9883-4.4453-4.4453-4.4453-2.4531 0-4.4453 1.9883-4.4453 4.4453v38.457c-2.9688 1.1484-5.6094 3.0625-7.5469 5.6055-0.023438 0.03125-0.050782 0.066406-0.070313 0.097656-1.9141 2.6602-2.9258 5.7227-2.9258 8.75-0.10547 4.2539 1.5664 8.3438 4.4141 11.387-0.42969 0.44531-0.83594 0.91016-1.2109 1.4023-0.023438 0.03125-0.046875 0.0625-0.066407 0.089843-1.9258 2.6602-2.9453 5.7266-2.9453 8.7773-0.09375 4.2578 1.6562 8.2812 4.6641 11.246-0.67969 0.80078-1.2695 1.6602-1.7617 2.5703-0.16797 0.22656-0.3125 0.46875-0.4375 0.73047-0.99609 2.0898-1.4961 4.2422-1.4961 6.3359-0.03125 2.3828 0.49219 4.6797 1.457 6.7695l-48.344 0.003906c14.547-106.99 60.012-160.39 99.883-186.97zm180.39 186.97v-0.078125c4.5117-4.832 6.457-12.043 4.8516-18.617-0.80469-3.3008-2.4609-6.1992-4.7344-8.3984l1.8555-0.74219c6.9297-2.7969 11.582-10.129 11.582-18.254 0-1.5195-0.17188-3.0547-0.52734-4.6602-0.75-3.0625-2.3242-6.0547-4.4453-8.5156 8.5547-3.5586 13.488-14.039 10.789-23.031-1.8047-6.0391-6.6562-12.977-19.562-11.633-7.9141 0.90625-23.078 6.4297-41.168 14.926 1.8828-9.8789 4.4766-19.113 7.8633-28.004 1.0938 0.14453 2.2109 0.22656 3.3672 0.22656 15.176 0 35.156-11.832 45.172-18.477 21.008 32.746 34.191 72.789 41.238 125.25z"/>
  <path fill="green" d="m380.78 131.18c0.11719-0.023438 11.723-1.9219 19.758 3.7422 0.77734 0.54688 1.6719 0.8125 2.5586 0.8125 1.3984 0 2.7695-0.65625 3.6367-1.8828 1.4141-2.0078 0.93359-4.7812-1.0703-6.1914-11.094-7.8203-25.789-5.3438-26.41-5.2344-2.4141 0.42578-4.0195 2.7227-3.6016 5.1367 0.41406 2.4102 2.7148 4.0312 5.1289 3.6172z"/>
  <path fill="green" d="m285.08 135.73c0.88281 0 1.7773-0.26172 2.5586-0.8125 8.0039-5.6406 19.559-3.7734 19.754-3.7422 2.4219 0.42969 4.7148-1.1914 5.1406-3.6055 0.42578-2.418-1.1875-4.7227-3.6055-5.1484-0.61719-0.10938-15.312-2.5859-26.41 5.2344-2.0078 1.4141-2.4844 4.1875-1.0703 6.1914 0.85938 1.2266 2.2344 1.8828 3.6328 1.8828z"/>
  <path fill="green" d="m329.67 192.5c4.8281 1.3672 9.7188 2.0586 14.543 2.0586 4.8203 0 9.7148-0.69141 14.543-2.0586 2.3633-0.66797 3.7344-3.125 3.0664-5.4883-0.66797-2.3633-3.1289-3.7344-5.4844-3.0703-8.082 2.2852-16.172 2.2852-24.246 0-2.3633-0.67188-4.8203 0.70312-5.4883 3.0664-0.66797 2.3711 0.70703 4.8242 3.0664 5.4922z"/>
 </g>
</svg>
