<?xml version="1.0" encoding="UTF-8"?>
<svg width="700pt" height="700pt" version="1.1" viewBox="0 0 700 500" xmlns="http://www.w3.org/2000/svg" xmlns:xlink="http://www.w3.org/1999/xlink">
 <g>
  <path fill="green" d="m462.52 272.42c1.9766-0.003907 3.8203-1.0117 4.8906-2.6719 1.0703-1.6602 1.2305-3.75 0.41797-5.5547l-55.531-123.61c-1.3359-2.9297-4.7969-4.2227-7.7305-2.8867-2.9297 1.3359-4.2227 4.7969-2.8867 7.7305l55.477 123.55c0.94531 2.1094 3.0508 3.457 5.3633 3.4414z"/>
  <path fill="green" d="m628.83 406.12c-17.953-23.656-39.621-44.242-64.164-60.957 3.7578-7.3867 3.9531-16.082 0.52344-23.625l-42.465-94.035 13.941-12.484c3.8281-3.4219 6.4648-7.9805 7.5117-13.012 1.0508-5.0273 0.46094-10.258-1.6797-14.93l-18.258-41.242c-2.082-4.6992-5.625-8.5977-10.102-11.121-4.4805-2.5234-9.6523-3.5312-14.75-2.8789l-18.727 2.2734-42.289-94.438c-4.0195-8.8398-12.375-14.926-22.02-16.051-9.6445-1.1211-19.172 2.8867-25.113 10.566-51.566 67.434-61.191 82.484-128.22 139.07-2.6836 2.2148-5.3672 4.4336-8.1094 6.5352h0.003907c-2.3047-1.8828-5.0859-3.082-8.0352-3.4648-2.9492-0.37891-5.9453 0.070313-8.6484 1.3047l-18.492 8.2852c-3.9414 1.7656-7.0039 5.0391-8.5078 9.0859s-1.3164 8.5273 0.51562 12.438c-9.8008 5.1914-12.074 5.832-88.551 40.25-9.6367 4.3633-17.312 12.148-21.539 21.848-4.2227 9.6992-4.6953 20.625-1.3281 30.652l-25.199 27.766c-2.5312 2.7773-4.1953 6.2344-4.7852 9.9453-0.59375 3.7109-0.082031 7.5117 1.4609 10.938l18.609 41.477c1.4648 3.4375 3.8984 6.3711 7.0078 8.4453 3.1094 2.0703 6.7539 3.1914 10.492 3.2227l37.625-0.58203v-0.003906c5.2188 9.25 13.707 16.215 23.797 19.527 10.094 3.3125 21.055 2.7344 30.742-1.6172l9.918 21.523c1.1562 2.4922 3 4.6016 5.3164 6.0781 2.3164 1.4766 5.0039 2.2656 7.75 2.2656 2.4219-0.007813 4.8086-0.60547 6.9414-1.75 18.852 38.629 50.754 69.355 90.066 86.742 7.7344 3.2773 16.504 3.0586 24.066-0.59375 7.5664-3.6523 13.188-10.387 15.426-18.484-3.5977-1.5-7.3867-2.5039-11.258-2.9727-1.375 4.75-4.6953 8.6992-9.1406 10.867-4.4492 2.1641-9.6016 2.3516-14.191 0.50781-36.688-16.148-66.527-44.688-84.293-80.617l32.023-14.465v-0.003906c14.09 28.016 37.473 50.262 66.152 62.941 3.7656 1.6719 6.8086 4.6406 8.5625 8.3711 1.7578 3.7266 2.1133 7.9609 1.0039 11.93l11.258 3.0898v0.003906c1.8711-6.6484 1.2734-13.754-1.6875-19.992-2.9609-6.2422-8.0781-11.199-14.414-13.957-26.043-11.605-47.285-31.836-60.141-57.285 6.9492-3.3867 9.9453-11.68 6.7656-18.727l-9.7422-21.641c2.8594-1.2266 5.832-2.4492 8.5742-3.5586h0.003907c1.7109 3.9609 4.9414 7.0742 8.9609 8.6406 4.0234 1.5664 8.5039 1.4609 12.445-0.29688l18.492-8.3398v-0.003906c2.7148-1.2109 5.0352-3.1602 6.6953-5.625 1.6602-2.4648 2.5938-5.3438 2.6953-8.3164 7.293-1.3398 38.035-5.832 51.566-7.3516v0.003906c-17.434 13.992-33.105 30.055-46.664 47.832-1.5 2.0508-1.5 4.832 0 6.8828 2.5664 3.5586 64.168 87.5 142.62 87.5s140-83.766 142.68-87.5c1.5859-1.9844 1.7031-4.7695 0.28906-6.8828zm-128.33-263.02v-0.003906c5.3945-0.63672 10.586 2.2891 12.832 7.2344l18.609 41.535c2.2578 4.957 1 10.809-3.0898 14.406l-11.668 10.09-32.082-71.398zm-278.31 55.941c0.875-2.332 0.69922-1.75 20.824-10.793 2.2227-0.98828 4.8281 0.003906 5.8359 2.2148 3.5586 8.1094 1.457 3.3242 36.398 81.023l-26.602 11.957c-39.898-88.723-37.391-81.953-36.457-84.402zm67.844 83.066c1.6914 3.793-0.46484-0.93359 11.668 26.074l-26.543 11.957-11.668-26.074zm-111.59-46.668 9.8594 21.934-31.793 14.293-9.8594-21.934zm6.6484 99.867-9.5117-20.883 31.793-14.293 9.5078 21.176zm36.574-3.3828 9.5078 21.176-31.793 14.406-9.5078-21.176zm-50.867-28.176-9.5078-21.117 31.789-14.293 9.5078 21.176zm-62.711 86.273c-3.0352 0.039063-5.8047-1.7227-7.0547-4.4922l-18.609-41.355c-1.2188-2.7656-0.69531-5.9922 1.3398-8.2266l21.641-23.684 35 77.41zm87.5 18.316c-7.4648 3.3984-15.98 3.6719-23.648 0.75781-7.6719-2.9141-13.855-8.7734-17.184-16.273l-42.293-93.625c-3.2891-7.3828-3.543-15.766-0.69922-23.332 5.0742-13.418 15.285-16.801 24.266-20.766l67.379 149.68zm8.5781-30.332 31.793-14.234 9.8594 21.934-31.793 14.293zm74.082 35-54.074 24.5c-0.64844 0.29688-1.3906 0.32031-2.0586 0.066406-0.66797-0.25-1.207-0.75781-1.5-1.4062l-9.8008-21.992 58.977-26.484 9.8008 21.816h-0.003906c0.62109 1.3711 0.023437 2.9844-1.3398 3.6172zm-21.582-32.082-67.609-149.98c12.832-5.832 19.074-8.3984 27.477-12.832l67.723 150.79c-8.2227 3.1523-14.699 6.125-27.59 12.02zm70-14.465v-0.003906c-0.29688 0.83203-0.84766 1.5469-1.5781 2.043-0.58203 0.58203-10.148 4.668-19.191 8.6914-2.0039 0.97266-4.4219 0.23438-5.5391-1.6914-0.41016-0.58203 0 0-20.184-44.742l26.602-11.957c21.348 48.125 20.59 45.266 19.891 47.656zm8.8086-12.074-11.375-25.258v-0.003906c27.645-5.0156 55.586-8.25 83.648-9.6836 1.5469 0 3.0312-0.61328 4.125-1.707 1.0938-1.0977 1.707-2.5781 1.707-4.125-0.15234-3.1094-2.7227-5.5469-5.832-5.543-29.609 1.5625-59.09 5.0117-88.258 10.324l-57.75-128.33c5.832-4.2578 7.6992-6.125 25.898-21.465v-0.003907c31.492-26.441 59.867-56.387 84.586-89.25l13.184 29.168c0.56641 1.5039 1.7344 2.707 3.2188 3.3242 1.4883 0.61719 3.1641 0.58984 4.6328-0.070313 1.4648-0.66016 2.5938-1.8984 3.1172-3.4219 0.52344-1.5195 0.39453-3.1914-0.35547-4.6172l-15.691-35 20.648-27.066h0.003906c3.4219-4.4531 8.9297-6.7891 14.512-6.1406 5.582 0.64453 10.414 4.1719 12.73 9.293l125.94 281.87c1.8047 4.0039 1.8047 8.5938 0 12.598-48.242-27.883-95.375-27.648-146.42 5.832-25.316 1.6953-62.066 7.2344-72.449 9.2773zm150.85 134.17c-63.879 0.11328-118.3-63.355-130.5-78.988 16.297-20.359 35.43-38.277 56.816-53.199 48.418-32.957 94.324-35 144.61-1.9258 22.574 15.262 42.715 33.844 59.734 55.125-12.66 15.633-67.027 79.102-130.84 79.102z"/>
  <path fill="green" d="m486.15 342.82c-17.715-0.015625-34.715 7.0117-47.25 19.527-12.539 12.52-19.59 29.508-19.598 47.227-0.011719 17.719 7.0195 34.715 19.543 47.246 12.52 12.535 29.512 19.578 47.227 19.586 17.719 0.003906 34.715-7.0312 47.242-19.559 12.531-12.527 19.57-29.516 19.57-47.234-0.015624-17.699-7.0469-34.672-19.559-47.191s-29.477-19.57-47.176-19.602zm0 121.86c-14.625 0.015625-28.66-5.7812-39.008-16.117-10.352-10.336-16.168-24.363-16.176-38.988-0.003906-14.629 5.8047-28.656 16.148-39 10.344-10.34 24.371-16.148 38.996-16.145 14.629 0.003906 28.652 5.8242 38.988 16.172 10.336 10.352 16.133 24.383 16.117 39.012-0.011719 14.598-5.8203 28.598-16.145 38.922-10.324 10.32-24.32 16.129-38.922 16.145z"/>
  <path fill="green" d="m486.15 373.33c-9.7031-0.015625-19.016 3.8281-25.887 10.68-6.8672 6.8516-10.734 16.152-10.746 25.859-0.007813 9.7031 3.8359 19.012 10.691 25.879 6.8594 6.8672 16.16 10.727 25.863 10.734 9.707 0.003906 19.012-3.8477 25.875-10.707 6.8672-6.8594 10.723-16.164 10.723-25.867 0-9.6914-3.8477-18.984-10.691-25.844-6.8477-6.8555-16.137-10.719-25.828-10.734zm0 61.426c-6.6094 0.015626-12.957-2.5977-17.641-7.2656-4.6836-4.6719-7.3203-11.012-7.3242-17.621-0.003906-6.6133 2.6211-12.957 7.2969-17.633s11.02-7.3008 17.629-7.2969c6.6133 0.003906 12.953 2.6406 17.621 7.3242 4.6719 4.6836 7.2852 11.031 7.2695 17.645-0.078125 6.5391-2.7305 12.785-7.3789 17.383-4.6523 4.5977-10.93 7.1758-17.473 7.1719z"/>
 </g>
</svg>
